<svg width="3000" height="2000" viewBox="0 0 1000 2000" fill="none" xmlns="http://www.w3.org/2000/svg">
<path d="M975.761 2000H1.14272e-05L1.14272e-05 0L975.761 0C975.761 0 986.615 77.9645 947.628 163C913.499 237.439 887.576 274.327 887.576 352.5C887.576 430.5 925.327 469.927 947.628 512C993.211 598 1000 605.5 1000 679C1000 750.902 994.991 809.5 947.628 944.5C924.385 1010.75 989.65 1065 966.858 1136.5C937.181 1229.6 928.879 1195.71 928.879 1308.5C928.879 1406.5 998.478 1391.07 975.761 1566.5C966.502 1638 936.588 1684.5 975.761 1785.5C1018.84 1896.56 975.761 2000 975.761 2000Z" fill="#667CC4"/>
</svg>

