<svg width="577" height="307" viewBox="0 0 577 307" fill="none" xmlns="http://www.w3.org/2000/svg">
<rect x="0.4893" y="0.507037" width="79" height="99" rx="4.5" transform="matrix(0.999898 0.0143014 -0.0212971 0.999773 2.14055 201.993)" fill="#F7E4DE" fill-opacity="0.8" stroke="#3D556A"/>
<rect x="0.521085" y="0.485245" width="79" height="139" rx="4.5" transform="matrix(0.999591 -0.0286028 0.0425783 0.999093 93.9796 166.304)" fill="#C1E7FD" fill-opacity="0.8" stroke="#3D556A"/>
<rect x="0.478506" y="0.513848" width="79" height="179" rx="4.5" transform="matrix(0.999591 0.0286028 -0.0425783 0.999093 199.686 119.987)" fill="#F3ECCC" fill-opacity="0.8" stroke="#3D556A"/>
<rect x="0.521085" y="0.485245" width="79" height="219" rx="4.5" transform="matrix(0.999591 -0.0286028 0.0425783 0.999093 289.98 83.3036)" fill="#F1F1F1" fill-opacity="0.8" stroke="#3D556A"/>
<rect x="0.489235" y="0.51734" width="79" height="259" rx="4.5" transform="matrix(0.999391 0.0348995 -0.0209206 0.999781 398.274 40.6417)" fill="#5B81AE" fill-opacity="0.8" stroke="#3D556A"/>
<rect x="0.527611" y="0.48177" width="79" height="299" rx="4.5" transform="matrix(0.999391 -0.0348995 0.0558313 0.99844 480.16 3.05939)" fill="#BEF8D6" fill-opacity="0.8" stroke="#3D556A"/>
<g filter="url(#filter0_f)">
<path d="M62.5938 265.758C61.9609 271.172 59.957 275.355 56.582 278.309C53.2305 281.238 48.7656 282.703 43.1875 282.703C37.1406 282.703 32.2891 280.535 28.6328 276.199C25 271.863 23.1836 266.062 23.1836 258.797V253.875C23.1836 249.117 24.0273 244.934 25.7148 241.324C27.4258 237.715 29.8398 234.949 32.957 233.027C36.0742 231.082 39.6836 230.109 43.7852 230.109C49.2227 230.109 53.582 231.633 56.8633 234.68C60.1445 237.703 62.0547 241.898 62.5938 247.266H55.8086C55.2227 243.188 53.9453 240.234 51.9766 238.406C50.0312 236.578 47.3008 235.664 43.7852 235.664C39.4727 235.664 36.0859 237.258 33.625 240.445C31.1875 243.633 29.9688 248.168 29.9688 254.051V259.008C29.9688 264.562 31.1289 268.98 33.4492 272.262C35.7695 275.543 39.0156 277.184 43.1875 277.184C46.9375 277.184 49.8086 276.34 51.8008 274.652C53.8164 272.941 55.1523 269.977 55.8086 265.758H62.5938Z" fill="white"/>
<path d="M62.5938 265.758L63.587 265.874L63.7174 264.758H62.5938V265.758ZM56.582 278.309L57.2402 279.061L57.2405 279.061L56.582 278.309ZM28.6328 276.199L27.8663 276.841L27.8683 276.844L28.6328 276.199ZM25.7148 241.324L24.8112 240.896L24.809 240.901L25.7148 241.324ZM32.957 233.027L33.4819 233.879L33.4865 233.876L32.957 233.027ZM56.8633 234.68L56.1828 235.412L56.1857 235.415L56.8633 234.68ZM62.5938 247.266V248.266H63.6992L63.5887 247.166L62.5938 247.266ZM55.8086 247.266L54.8188 247.408L54.942 248.266H55.8086V247.266ZM51.9766 238.406L51.2917 239.135L51.2961 239.139L51.9766 238.406ZM33.625 240.445L32.8335 239.834L32.8306 239.838L33.625 240.445ZM51.8008 274.652L52.4471 275.415L52.4479 275.415L51.8008 274.652ZM55.8086 265.758V264.758H54.9521L54.8205 265.604L55.8086 265.758ZM61.6005 265.642C60.99 270.865 59.0736 274.8 55.9235 277.556L57.2405 279.061C60.8405 275.911 62.9319 271.479 63.587 265.874L61.6005 265.642ZM55.9239 277.556C52.7972 280.289 48.587 281.703 43.1875 281.703V283.703C48.9443 283.703 53.6637 282.188 57.2402 279.061L55.9239 277.556ZM43.1875 281.703C37.4131 281.703 32.8497 279.649 29.3973 275.555L27.8683 276.844C31.7285 281.422 36.8681 283.703 43.1875 283.703V281.703ZM29.3993 275.557C25.956 271.447 24.1836 265.896 24.1836 258.797H22.1836C22.1836 266.229 24.044 272.279 27.8663 276.841L29.3993 275.557ZM24.1836 258.797V253.875H22.1836V258.797H24.1836ZM24.1836 253.875C24.1836 249.236 25.0061 245.201 26.6207 241.748L24.809 240.901C23.0486 244.666 22.1836 248.999 22.1836 253.875H24.1836ZM26.6185 241.753C28.2545 238.301 30.544 235.69 33.4818 233.879L32.4322 232.176C29.1357 234.209 26.5971 237.128 24.8112 240.896L26.6185 241.753ZM33.4865 233.876C36.4268 232.041 39.8484 231.109 43.7852 231.109V229.109C39.5188 229.109 35.7216 230.123 32.4276 232.179L33.4865 233.876ZM43.7852 231.109C49.0273 231.109 53.1245 232.573 56.1828 235.412L57.5437 233.947C54.0396 230.693 49.418 229.109 43.7852 229.109V231.109ZM56.1857 235.415C59.251 238.24 61.0788 242.189 61.5988 247.366L63.5887 247.166C63.0306 241.608 61.038 237.167 57.5409 233.944L56.1857 235.415ZM62.5938 246.266H55.8086V248.266H62.5938V246.266ZM56.7984 247.123C56.1965 242.934 54.8623 239.721 52.657 237.673L51.2961 239.139C53.0284 240.748 54.2489 243.441 54.8188 247.408L56.7984 247.123ZM52.6614 237.678C50.4779 235.626 47.4723 234.664 43.7852 234.664V236.664C47.1292 236.664 49.5846 237.531 51.2917 239.135L52.6614 237.678ZM43.7852 234.664C39.1882 234.664 35.4988 236.382 32.8335 239.834L34.4165 241.056C36.6731 238.134 39.7571 236.664 43.7852 236.664V234.664ZM32.8306 239.838C30.2103 243.264 28.9688 248.047 28.9688 254.051H30.9688C30.9688 248.289 32.1647 244.001 34.4194 241.053L32.8306 239.838ZM28.9688 254.051V259.008H30.9688V254.051H28.9688ZM28.9688 259.008C28.9688 264.692 30.1552 269.335 32.6327 272.839L34.2657 271.684C32.1026 268.625 30.9688 264.433 30.9688 259.008H28.9688ZM32.6327 272.839C35.1488 276.397 38.7057 278.184 43.1875 278.184V276.184C39.3256 276.184 36.3903 274.689 34.2657 271.684L32.6327 272.839ZM43.1875 278.184C47.0728 278.184 50.2097 277.311 52.4471 275.415L51.1544 273.889C49.4075 275.369 46.8022 276.184 43.1875 276.184V278.184ZM52.4479 275.415C54.7301 273.478 56.1249 270.231 56.7967 265.912L54.8205 265.604C54.1798 269.723 52.9028 272.405 51.1536 273.89L52.4479 275.415ZM55.8086 266.758H62.5938V264.758H55.8086V266.758Z" fill="#3D556A"/>
</g>
<g filter="url(#filter1_f)">
<path d="M150.207 245.641H128.762L123.945 259H116.984L136.531 207.812H142.438L162.02 259H155.094L150.207 245.641ZM130.801 240.086H148.203L139.484 216.145L130.801 240.086Z" fill="white"/>
<path d="M150.207 245.641L151.146 245.297L150.906 244.641H150.207V245.641ZM128.762 245.641V244.641H128.059L127.821 245.301L128.762 245.641ZM123.945 259V260H124.648L124.886 259.339L123.945 259ZM116.984 259L116.05 258.643L115.532 260H116.984V259ZM136.531 207.812V206.812H135.843L135.597 207.456L136.531 207.812ZM142.438 207.812L143.371 207.455L143.126 206.812H142.438V207.812ZM162.02 259V260H163.473L162.954 258.643L162.02 259ZM155.094 259L154.155 259.344L154.395 260H155.094V259ZM130.801 240.086L129.861 239.745L129.374 241.086H130.801V240.086ZM148.203 240.086V241.086H149.632L149.143 239.744L148.203 240.086ZM139.484 216.145L140.424 215.802L139.482 213.217L138.544 215.804L139.484 216.145ZM150.207 244.641H128.762V246.641H150.207V244.641ZM127.821 245.301L123.005 258.661L124.886 259.339L129.702 245.98L127.821 245.301ZM123.945 258H116.984V260H123.945V258ZM117.919 259.357L137.465 208.169L135.597 207.456L116.05 258.643L117.919 259.357ZM136.531 208.812H142.438V206.812H136.531V208.812ZM141.504 208.17L161.086 259.357L162.954 258.643L143.371 207.455L141.504 208.17ZM162.02 258H155.094V260H162.02V258ZM156.033 258.656L151.146 245.297L149.268 245.984L154.155 259.344L156.033 258.656ZM130.801 241.086H148.203V239.086H130.801V241.086ZM149.143 239.744L140.424 215.802L138.545 216.487L147.263 240.428L149.143 239.744ZM138.544 215.804L129.861 239.745L131.741 240.427L140.424 216.485L138.544 215.804Z" fill="#3D556A"/>
</g>
<g filter="url(#filter2_f)">
<path d="M239.715 214.293H227.691V235H220.906V183.812H237.852C243.617 183.812 248.047 185.125 251.141 187.75C254.258 190.375 255.816 194.195 255.816 199.211C255.816 202.398 254.949 205.176 253.215 207.543C251.504 209.91 249.113 211.68 246.043 212.852L258.066 234.578V235H250.824L239.715 214.293ZM227.691 208.773H238.062C241.414 208.773 244.074 207.906 246.043 206.172C248.035 204.438 249.031 202.117 249.031 199.211C249.031 196.047 248.082 193.621 246.184 191.934C244.309 190.246 241.59 189.391 238.027 189.367H227.691V208.773Z" fill="white"/>
<path d="M239.715 214.293L240.596 213.82L240.313 213.293H239.715V214.293ZM227.691 214.293V213.293H226.691V214.293H227.691ZM227.691 235V236H228.691V235H227.691ZM220.906 235H219.906V236H220.906V235ZM220.906 183.812V182.812H219.906V183.812H220.906ZM251.141 187.75L250.494 188.513L250.496 188.515L251.141 187.75ZM253.215 207.543L252.408 206.952L252.404 206.957L253.215 207.543ZM246.043 212.852L245.686 211.917L244.61 212.328L245.168 213.336L246.043 212.852ZM258.066 234.578H259.066V234.32L258.941 234.094L258.066 234.578ZM258.066 235V236H259.066V235H258.066ZM250.824 235L249.943 235.473L250.226 236H250.824V235ZM227.691 208.773H226.691V209.773H227.691V208.773ZM246.043 206.172L245.386 205.418L245.382 205.422L246.043 206.172ZM246.184 191.934L245.515 192.677L245.519 192.681L246.184 191.934ZM238.027 189.367L238.034 188.367H238.027V189.367ZM227.691 189.367V188.367H226.691V189.367H227.691ZM239.715 213.293H227.691V215.293H239.715V213.293ZM226.691 214.293V235H228.691V214.293H226.691ZM227.691 234H220.906V236H227.691V234ZM221.906 235V183.812H219.906V235H221.906ZM220.906 184.812H237.852V182.812H220.906V184.812ZM237.852 184.812C243.479 184.812 247.644 186.094 250.494 188.513L251.788 186.987C248.45 184.156 243.756 182.812 237.852 182.812V184.812ZM250.496 188.515C253.337 190.907 254.816 194.416 254.816 199.211H256.816C256.816 193.975 255.179 189.843 251.785 186.985L250.496 188.515ZM254.816 199.211C254.816 202.205 254.006 204.771 252.408 206.952L254.022 208.134C255.892 205.58 256.816 202.592 256.816 199.211H254.816ZM252.404 206.957C250.821 209.147 248.598 210.806 245.686 211.917L246.4 213.786C249.628 212.553 252.186 210.673 254.025 208.129L252.404 206.957ZM245.168 213.336L257.191 235.062L258.941 234.094L246.918 212.367L245.168 213.336ZM257.066 234.578V235H259.066V234.578H257.066ZM258.066 234H250.824V236H258.066V234ZM251.705 234.527L240.596 213.82L238.834 214.766L249.943 235.473L251.705 234.527ZM227.691 209.773H238.062V207.773H227.691V209.773ZM238.062 209.773C241.588 209.773 244.506 208.858 246.704 206.922L245.382 205.422C243.642 206.954 241.24 207.773 238.062 207.773V209.773ZM246.7 206.926C248.933 204.981 250.031 202.374 250.031 199.211H248.031C248.031 201.861 247.137 203.894 245.386 205.418L246.7 206.926ZM250.031 199.211C250.031 195.837 249.011 193.108 246.848 191.186L245.519 192.681C247.154 194.134 248.031 196.257 248.031 199.211H250.031ZM246.853 191.19C244.733 189.282 241.741 188.392 238.034 188.367L238.021 190.367C241.439 190.39 243.884 191.21 245.515 192.677L246.853 191.19ZM238.027 188.367H227.691V190.367H238.027V188.367ZM226.691 189.367V208.773H228.691V189.367H226.691Z" fill="#3D556A"/>
</g>
<g filter="url(#filter3_f)">
<path d="M349.875 184.34H327.691V202.48H353.461V208H320.941V156.812H353.109V162.367H327.691V178.82H349.875V184.34Z" fill="white"/>
<path d="M349.875 184.34V185.34H350.875V184.34H349.875ZM327.691 184.34V183.34H326.691V184.34H327.691ZM327.691 202.48H326.691V203.48H327.691V202.48ZM353.461 202.48H354.461V201.48H353.461V202.48ZM353.461 208V209H354.461V208H353.461ZM320.941 208H319.941V209H320.941V208ZM320.941 156.812V155.812H319.941V156.812H320.941ZM353.109 156.812H354.109V155.812H353.109V156.812ZM353.109 162.367V163.367H354.109V162.367H353.109ZM327.691 162.367V161.367H326.691V162.367H327.691ZM327.691 178.82H326.691V179.82H327.691V178.82ZM349.875 178.82H350.875V177.82H349.875V178.82ZM349.875 183.34H327.691V185.34H349.875V183.34ZM326.691 184.34V202.48H328.691V184.34H326.691ZM327.691 203.48H353.461V201.48H327.691V203.48ZM352.461 202.48V208H354.461V202.48H352.461ZM353.461 207H320.941V209H353.461V207ZM321.941 208V156.812H319.941V208H321.941ZM320.941 157.812H353.109V155.812H320.941V157.812ZM352.109 156.812V162.367H354.109V156.812H352.109ZM353.109 161.367H327.691V163.367H353.109V161.367ZM326.691 162.367V178.82H328.691V162.367H326.691ZM327.691 179.82H349.875V177.82H327.691V179.82ZM348.875 178.82V184.34H350.875V178.82H348.875Z" fill="#3D556A"/>
</g>
<g filter="url(#filter4_f)">
<path d="M449.875 154.34H427.691V172.48H453.461V178H420.941V126.812H453.109V132.367H427.691V148.82H449.875V154.34Z" fill="white"/>
<path d="M449.875 154.34V155.34H450.875V154.34H449.875ZM427.691 154.34V153.34H426.691V154.34H427.691ZM427.691 172.48H426.691V173.48H427.691V172.48ZM453.461 172.48H454.461V171.48H453.461V172.48ZM453.461 178V179H454.461V178H453.461ZM420.941 178H419.941V179H420.941V178ZM420.941 126.812V125.812H419.941V126.812H420.941ZM453.109 126.812H454.109V125.812H453.109V126.812ZM453.109 132.367V133.367H454.109V132.367H453.109ZM427.691 132.367V131.367H426.691V132.367H427.691ZM427.691 148.82H426.691V149.82H427.691V148.82ZM449.875 148.82H450.875V147.82H449.875V148.82ZM449.875 153.34H427.691V155.34H449.875V153.34ZM426.691 154.34V172.48H428.691V154.34H426.691ZM427.691 173.48H453.461V171.48H427.691V173.48ZM452.461 172.48V178H454.461V172.48H452.461ZM453.461 177H420.941V179H453.461V177ZM421.941 178V126.812H419.941V178H421.941ZM420.941 127.812H453.109V125.812H420.941V127.812ZM452.109 126.812V132.367H454.109V126.812H452.109ZM453.109 131.367H427.691V133.367H453.109V131.367ZM426.691 132.367V148.82H428.691V132.367H426.691ZM427.691 149.82H449.875V147.82H427.691V149.82ZM448.875 148.82V154.34H450.875V148.82H448.875Z" fill="#3D556A"/>
</g>
<g filter="url(#filter5_f)">
<path d="M533.715 120.293H521.691V141H514.906V89.8125H531.852C537.617 89.8125 542.047 91.125 545.141 93.75C548.258 96.375 549.816 100.195 549.816 105.211C549.816 108.398 548.949 111.176 547.215 113.543C545.504 115.91 543.113 117.68 540.043 118.852L552.066 140.578V141H544.824L533.715 120.293ZM521.691 114.773H532.062C535.414 114.773 538.074 113.906 540.043 112.172C542.035 110.438 543.031 108.117 543.031 105.211C543.031 102.047 542.082 99.6211 540.184 97.9336C538.309 96.2461 535.59 95.3906 532.027 95.3672H521.691V114.773Z" fill="white"/>
<path d="M533.715 120.293L534.596 119.82L534.313 119.293H533.715V120.293ZM521.691 120.293V119.293H520.691V120.293H521.691ZM521.691 141V142H522.691V141H521.691ZM514.906 141H513.906V142H514.906V141ZM514.906 89.8125V88.8125H513.906V89.8125H514.906ZM545.141 93.75L544.494 94.5125L544.496 94.5149L545.141 93.75ZM547.215 113.543L546.408 112.952L546.404 112.957L547.215 113.543ZM540.043 118.852L539.686 117.917L538.61 118.328L539.168 119.336L540.043 118.852ZM552.066 140.578H553.066V140.32L552.941 140.094L552.066 140.578ZM552.066 141V142H553.066V141H552.066ZM544.824 141L543.943 141.473L544.226 142H544.824V141ZM521.691 114.773H520.691V115.773H521.691V114.773ZM540.043 112.172L539.386 111.418L539.382 111.422L540.043 112.172ZM540.184 97.9336L539.515 98.6769L539.519 98.681L540.184 97.9336ZM532.027 95.3672L532.034 94.3672H532.027V95.3672ZM521.691 95.3672V94.3672H520.691V95.3672H521.691ZM533.715 119.293H521.691V121.293H533.715V119.293ZM520.691 120.293V141H522.691V120.293H520.691ZM521.691 140H514.906V142H521.691V140ZM515.906 141V89.8125H513.906V141H515.906ZM514.906 90.8125H531.852V88.8125H514.906V90.8125ZM531.852 90.8125C537.479 90.8125 541.644 92.0943 544.494 94.5125L545.788 92.9875C542.45 90.1557 537.756 88.8125 531.852 88.8125V90.8125ZM544.496 94.5149C547.337 96.9067 548.816 100.416 548.816 105.211H550.816C550.816 99.9747 549.179 95.8433 545.785 92.9851L544.496 94.5149ZM548.816 105.211C548.816 108.205 548.006 110.771 546.408 112.952L548.022 114.134C549.892 111.58 550.816 108.592 550.816 105.211H548.816ZM546.404 112.957C544.821 115.147 542.598 116.806 539.686 117.917L540.4 119.786C543.628 118.553 546.186 116.673 548.025 114.129L546.404 112.957ZM539.168 119.336L551.191 141.062L552.941 140.094L540.918 118.367L539.168 119.336ZM551.066 140.578V141H553.066V140.578H551.066ZM552.066 140H544.824V142H552.066V140ZM545.705 140.527L534.596 119.82L532.834 120.766L543.943 141.473L545.705 140.527ZM521.691 115.773H532.062V113.773H521.691V115.773ZM532.062 115.773C535.588 115.773 538.506 114.858 540.704 112.922L539.382 111.422C537.642 112.954 535.24 113.773 532.062 113.773V115.773ZM540.7 112.926C542.933 110.981 544.031 108.374 544.031 105.211H542.031C542.031 107.861 541.137 109.894 539.386 111.418L540.7 112.926ZM544.031 105.211C544.031 101.837 543.011 99.1085 540.848 97.1862L539.519 98.681C541.154 100.134 542.031 102.257 542.031 105.211H544.031ZM540.853 97.1903C538.733 95.2825 535.741 94.3916 532.034 94.3672L532.021 96.3672C535.439 96.3897 537.884 97.2097 539.515 98.6769L540.853 97.1903ZM532.027 94.3672H521.691V96.3672H532.027V94.3672ZM520.691 95.3672V114.773H522.691V95.3672H520.691Z" fill="#3D556A"/>
</g>
<defs>
<filter id="filter0_f" x="20.1836" y="227.109" width="45.5338" height="58.5938" filterUnits="userSpaceOnUse" color-interpolation-filters="sRGB">
<feFlood flood-opacity="0" result="BackgroundImageFix"/>
<feBlend mode="normal" in="SourceGraphic" in2="BackgroundImageFix" result="shape"/>
<feGaussianBlur stdDeviation="1" result="effect1_foregroundBlur"/>
</filter>
<filter id="filter1_f" x="113.532" y="204.812" width="51.9407" height="57.1875" filterUnits="userSpaceOnUse" color-interpolation-filters="sRGB">
<feFlood flood-opacity="0" result="BackgroundImageFix"/>
<feBlend mode="normal" in="SourceGraphic" in2="BackgroundImageFix" result="shape"/>
<feGaussianBlur stdDeviation="1" result="effect1_foregroundBlur"/>
</filter>
<filter id="filter2_f" x="217.906" y="180.812" width="43.1602" height="57.1875" filterUnits="userSpaceOnUse" color-interpolation-filters="sRGB">
<feFlood flood-opacity="0" result="BackgroundImageFix"/>
<feBlend mode="normal" in="SourceGraphic" in2="BackgroundImageFix" result="shape"/>
<feGaussianBlur stdDeviation="1" result="effect1_foregroundBlur"/>
</filter>
<filter id="filter3_f" x="317.941" y="153.812" width="38.5195" height="57.1875" filterUnits="userSpaceOnUse" color-interpolation-filters="sRGB">
<feFlood flood-opacity="0" result="BackgroundImageFix"/>
<feBlend mode="normal" in="SourceGraphic" in2="BackgroundImageFix" result="shape"/>
<feGaussianBlur stdDeviation="1" result="effect1_foregroundBlur"/>
</filter>
<filter id="filter4_f" x="417.941" y="123.812" width="38.5195" height="57.1875" filterUnits="userSpaceOnUse" color-interpolation-filters="sRGB">
<feFlood flood-opacity="0" result="BackgroundImageFix"/>
<feBlend mode="normal" in="SourceGraphic" in2="BackgroundImageFix" result="shape"/>
<feGaussianBlur stdDeviation="1" result="effect1_foregroundBlur"/>
</filter>
<filter id="filter5_f" x="511.906" y="86.8125" width="43.1602" height="57.1875" filterUnits="userSpaceOnUse" color-interpolation-filters="sRGB">
<feFlood flood-opacity="0" result="BackgroundImageFix"/>
<feBlend mode="normal" in="SourceGraphic" in2="BackgroundImageFix" result="shape"/>
<feGaussianBlur stdDeviation="1" result="effect1_foregroundBlur"/>
</filter>
</defs>
</svg>
