<svg width="1000" height="2000" viewBox="0 0 1000 2000" fill="none" xmlns="http://www.w3.org/2000/svg">
<path d="M0.63712 0H1000V2000H0.637118C0.637118 2000 22.6827 1883.04 66.1861 1798C104.268 1723.56 107.512 1690.5 66.1861 1605.5C27.5294 1525.99 66.1857 1485.44 66.1859 1388.5C66.1861 1310.5 28.4708 1298.5 28.4708 1213.5C28.4708 1136.21 80.7485 1080.22 66.1859 1010.5C49.894 932.5 78.0078 914.867 89.2331 835.5C105.922 717.5 89.2331 748.5 49.894 647C-7.49112 498.939 30.3834 487.345 66.1859 375.5C101.988 263.655 113.473 257 49.894 198C-9.3653 143.008 0.63712 0 0.63712 0Z" fill="#32C98A"/>
</svg>

