<svg width="738" height="438" viewBox="0 0 738 438" fill="none" xmlns="http://www.w3.org/2000/svg">
<path d="M568.497 341.419C407.281 272.419 435.605 515.328 162.497 411.036C-110.61 306.743 23.4985 263.76 112.997 137.036C202.496 10.3114 708 -48.2932 730.5 47.7068C753 143.707 729.714 410.419 568.497 341.419Z" fill="#3ABD47"/>
<path d="M533.5 210.5H544.5V217.5H533.5V210.5Z" stroke="#473ABD"/>
<rect x="384.261" y="144.207" width="72" height="34" fill="#F4FAFF" stroke="#473ABD"/>
<path d="M192 170C186.212 165.138 181.245 167.44 177.677 171.169C174.648 166.909 170.872 162.5 166.5 162.5C157.743 162.5 151.686 168.868 148.948 175.051L148.692 174.958C146.268 174.079 144.244 173.345 143 173C134 170.5 123.5 185.5 127 194C130.099 201.525 142.732 206.707 142.732 206.707L150.107 206.707L170.107 206.707L177.84 206.707L196.946 206.707L201.1 206.707C201.1 206.707 212.592 204.581 209.101 186.728C207.172 176.863 200.725 173.759 194.95 173.809C194.159 172.297 193.188 170.998 192 170Z" fill="#F4FAFF"/>
<path d="M192 170C186.212 165.138 181.245 167.44 177.677 171.169C174.648 166.909 170.872 162.5 166.5 162.5C157.743 162.5 151.686 168.868 148.948 175.051L148.692 174.958C146.268 174.079 144.244 173.345 143 173C134 170.5 123.5 185.5 127 194C130.099 201.525 142.732 206.707 142.732 206.707L150.107 206.707L170.107 206.707L177.84 206.707L196.946 206.707L201.1 206.707C201.1 206.707 212.592 204.581 209.101 186.728C207.172 176.863 200.725 173.759 194.95 173.809C194.159 172.297 193.188 170.998 192 170Z" stroke="#D0E7FB"/>
<rect x="0.778016" y="-0.169904" width="14.8091" height="23.7172" transform="matrix(0.648972 -0.760812 0.907059 0.421004 155.915 182.058)" fill="white" stroke="#473ABD"/>
<rect width="9.48544" height="1.57291" transform="matrix(0.648972 -0.760812 0.907059 0.421004 160.763 180.717)" fill="#473ABD"/>
<line y1="-1.5" x2="9.88066" y2="-1.5" transform="matrix(0.648972 -0.760812 0.907059 0.421004 167.108 183.614)" stroke="#473ABD" stroke-width="3"/>
<line y1="-1.5" x2="9.88066" y2="-1.5" transform="matrix(0.648972 -0.760812 0.907059 0.421004 169.772 184.828)" stroke="#473ABD" stroke-width="3"/>
<line y1="-1.5" x2="9.88066" y2="-1.5" transform="matrix(0.648972 -0.760812 0.907059 0.421004 172.64 186.135)" stroke="#473ABD" stroke-width="3"/>
<line y1="-1.5" x2="9.88066" y2="-1.5" transform="matrix(0.648972 -0.760812 0.907059 0.421004 175.304 187.348)" stroke="#473ABD" stroke-width="3"/>
<line y1="-1.5" x2="9.88066" y2="-1.5" transform="matrix(0.648972 -0.760812 0.907059 0.421004 177.967 188.562)" stroke="#473ABD" stroke-width="3"/>
<path d="M153.372 186.968L161.168 174.997L184.102 183.125L176.305 195.096L153.372 186.968Z" fill="white" stroke="#473ABD"/>
<rect width="9.17175" height="1.15143" transform="matrix(0.545757 -0.837943 0.94256 0.334038 157.272 185.834)" fill="#473ABD"/>
<rect width="11.6558" height="2.07256" transform="matrix(0.545757 -0.837943 0.94256 0.334038 161.14 188.512)" fill="#473ABD"/>
<rect width="11.6558" height="4.6057" transform="matrix(0.545757 -0.837943 0.94256 0.334038 165.522 189.985)" fill="#473ABD"/>
<rect width="11.6558" height="4.6057" transform="matrix(0.545757 -0.837943 0.94256 0.334038 171.646 192.067)" fill="#473ABD"/>
<rect x="34.5" y="278.5" width="37" height="51" fill="#F4FAFF" stroke="#473ABD"/>
<rect x="41" y="285" width="25" height="2" fill="#473ABD"/>
<line x1="40.761" y1="295.207" x2="65.761" y2="295.207" stroke="#473ABD" stroke-width="3"/>
<line x1="40.761" y1="303.207" x2="65.761" y2="303.207" stroke="#473ABD" stroke-width="3"/>
<line x1="40.761" y1="310.207" x2="65.761" y2="310.207" stroke="#473ABD" stroke-width="3"/>
<line x1="40.761" y1="317.207" x2="65.761" y2="317.207" stroke="#473ABD" stroke-width="3"/>
<line x1="40.761" y1="324.207" x2="65.761" y2="324.207" stroke="#473ABD" stroke-width="3"/>
<rect x="0.612068" y="-0.421809" width="13.389" height="25.3062" transform="matrix(0.232489 -0.972599 0.991647 0.128981 153.465 193.077)" fill="white" stroke="#473ABD"/>
<rect width="8.63339" height="1.67403" transform="matrix(0.232489 -0.972599 0.991647 0.128981 157.028 190.595)" fill="#473ABD"/>
<line y1="-1.5" x2="8.99477" y2="-1.5" transform="matrix(0.232489 -0.972599 0.991647 0.128981 164.387 191.511)" stroke="#473ABD" stroke-width="3"/>
<line y1="-1.5" x2="8.99477" y2="-1.5" transform="matrix(0.232489 -0.972599 0.991647 0.128981 167.474 191.893)" stroke="#473ABD" stroke-width="3"/>
<line y1="-1.5" x2="8.99477" y2="-1.5" transform="matrix(0.232489 -0.972599 0.991647 0.128981 170.799 192.304)" stroke="#E6ECEF" stroke-width="3"/>
<line y1="-1.5" x2="8.99477" y2="-1.5" transform="matrix(0.232489 -0.972599 0.991647 0.128981 173.886 192.686)" stroke="#E6ECEF" stroke-width="3"/>
<line y1="-1.5" x2="8.99477" y2="-1.5" transform="matrix(0.232489 -0.972599 0.991647 0.128981 176.974 193.068)" stroke="#E6ECEF" stroke-width="3"/>
<path d="M154.552 196.505L155.489 183.311L180.943 184.295L180.006 197.489L154.552 196.505Z" fill="white" stroke="#473ABD"/>
<rect width="8.53613" height="1.20329" transform="matrix(0.0708414 -0.997488 0.999254 0.0386151 157.579 194.385)" fill="#473ABD"/>
<rect width="10.848" height="2.16592" transform="matrix(0.0708414 -0.997488 0.999254 0.0386151 162.547 195.757)" fill="#473ABD"/>
<rect width="10.848" height="4.81316" transform="matrix(0.0708414 -0.997488 0.999254 0.0386151 167.361 195.871)" fill="#473ABD"/>
<rect width="10.848" height="4.81316" transform="matrix(0.0708414 -0.997488 0.999254 0.0386151 174.099 196.052)" fill="#473ABD"/>
<rect x="263.261" y="215.207" width="19" height="41" rx="2.5" fill="#F4FAFF" stroke="#473ABD" stroke-width="3" stroke-linejoin="round"/>
<path d="M264 250C264 249.448 264.448 249 265 249H281C281.552 249 282 249.448 282 250V254C282 254.552 281.552 255 281 255H265C264.448 255 264 254.552 264 254V250Z" fill="#473ABD"/>
<circle cx="273.261" cy="253.207" r="1.5" fill="white"/>
<path d="M407.261 155.707C407.261 155.82 407.211 155.966 407.045 156.141C406.877 156.318 406.609 156.5 406.24 156.664C405.503 156.992 404.45 157.207 403.261 157.207C402.072 157.207 401.019 156.992 400.282 156.664C399.913 156.5 399.645 156.318 399.477 156.141C399.311 155.966 399.261 155.82 399.261 155.707C399.261 155.593 399.311 155.448 399.477 155.273C399.645 155.096 399.913 154.914 400.282 154.75C401.019 154.422 402.072 154.207 403.261 154.207C404.45 154.207 405.503 154.422 406.24 154.75C406.609 154.914 406.877 155.096 407.045 155.273C407.211 155.448 407.261 155.593 407.261 155.707Z" fill="#F4FAFF" stroke="#473ABD"/>
<path d="M439.261 155.207C439.261 155.376 439.144 155.615 438.772 155.839C438.409 156.056 437.876 156.207 437.261 156.207C436.646 156.207 436.113 156.056 435.75 155.839C435.378 155.615 435.261 155.376 435.261 155.207C435.261 155.037 435.378 154.798 435.75 154.575C436.113 154.358 436.646 154.207 437.261 154.207C437.876 154.207 438.409 154.358 438.772 154.575C439.144 154.798 439.261 155.037 439.261 155.207Z" fill="#F4FAFF" stroke="#473ABD"/>
<circle cx="407.761" cy="160.707" r="2.5" fill="#F4FAFF" stroke="#473ABD"/>
<path d="M401.261 149.707C401.261 150.52 400.589 151.391 399.194 152.088C397.83 152.77 395.909 153.207 393.761 153.207C391.613 153.207 389.692 152.77 388.328 152.088C386.933 151.391 386.261 150.52 386.261 149.707C386.261 148.894 386.933 148.023 388.328 147.326C389.692 146.643 391.613 146.207 393.761 146.207C395.909 146.207 397.83 146.643 399.194 147.326C400.589 148.023 401.261 148.894 401.261 149.707Z" fill="#F4FAFF" stroke="#473ABD"/>
<path d="M454.261 149.707C454.261 150.537 453.622 151.405 452.329 152.094C451.058 152.772 449.267 153.207 447.261 153.207C445.255 153.207 443.464 152.772 442.193 152.094C440.9 151.405 440.261 150.537 440.261 149.707C440.261 148.877 440.9 148.009 442.193 147.32C443.464 146.642 445.255 146.207 447.261 146.207C449.267 146.207 451.058 146.642 452.329 147.32C453.622 148.009 454.261 148.877 454.261 149.707Z" fill="#F4FAFF" stroke="#473ABD"/>
<path d="M411.047 175.666C411.028 175.876 411.01 176.058 410.995 176.207H402.525C402.51 176.059 402.492 175.877 402.474 175.667C402.419 175.056 402.353 174.209 402.309 173.266C402.221 171.363 402.226 169.132 402.562 167.649C403.006 165.697 404.071 164.868 404.994 164.501C405.468 164.313 405.918 164.241 406.25 164.217C406.416 164.205 406.55 164.206 406.64 164.209C406.685 164.21 406.719 164.212 406.74 164.214L406.763 164.215L406.766 164.216L406.766 164.216L406.766 164.216L406.814 164.221L406.861 164.217L406.862 164.217L406.862 164.217L406.863 164.217L406.865 164.217L406.886 164.216C406.906 164.215 406.939 164.214 406.983 164.213C407.07 164.213 407.2 164.216 407.361 164.232C407.683 164.263 408.12 164.344 408.581 164.539C409.481 164.919 410.52 165.751 410.957 167.651C411.296 169.128 411.301 171.358 411.212 173.262C411.168 174.206 411.102 175.053 411.047 175.666Z" fill="#F4FAFF" stroke="#473ABD"/>
<circle cx="434.761" cy="160.707" r="2.5" fill="#F4FAFF" stroke="#473ABD"/>
<path d="M439.068 175.67C439.051 175.878 439.035 176.059 439.022 176.207H431.498C431.485 176.059 431.469 175.879 431.452 175.672C431.403 175.06 431.344 174.212 431.305 173.268C431.225 171.365 431.229 169.128 431.533 167.639C431.936 165.668 432.901 164.85 433.706 164.494C434.123 164.31 434.518 164.24 434.809 164.217C434.954 164.205 435.071 164.206 435.149 164.208C435.188 164.21 435.217 164.212 435.235 164.213L435.253 164.215C435.253 164.215 435.254 164.215 435.254 164.215L435.307 164.222L435.36 164.217C435.36 164.217 435.36 164.217 435.36 164.217C435.36 164.217 435.361 164.217 435.361 164.217L435.378 164.216C435.395 164.215 435.423 164.214 435.461 164.213C435.537 164.213 435.65 164.216 435.79 164.231C436.073 164.262 436.456 164.34 436.862 164.531C437.649 164.9 438.59 165.723 438.986 167.64C439.293 169.124 439.297 171.36 439.217 173.265C439.177 174.209 439.117 175.057 439.068 175.67Z" fill="#F4FAFF" stroke="#473ABD"/>
<circle cx="390.761" cy="149.707" r="0.5" fill="#F4FAFF" stroke="#473ABD"/>
<circle cx="396.761" cy="149.707" r="0.5" fill="#F4FAFF" stroke="#473ABD"/>
<circle cx="393.761" cy="149.707" r="0.5" fill="#F4FAFF" stroke="#473ABD"/>
<circle cx="443.761" cy="149.707" r="0.5" fill="#F4FAFF" stroke="#473ABD"/>
<circle cx="449.761" cy="149.707" r="0.5" fill="#F4FAFF" stroke="#473ABD"/>
<circle cx="446.761" cy="149.707" r="0.5" fill="#F4FAFF" stroke="#473ABD"/>
<path d="M519.5 230.5H558.5V244.5H519.5V230.5Z" fill="#F4FAFF" stroke="#473ABD"/>
<path d="M519.5 214.5H558.5V228.309L539 233.483L519.5 228.309V214.5Z" fill="#F4FAFF" stroke="#473ABD"/>
<circle cx="538.739" cy="228.5" r="2" stroke="#473ABD"/>
<path d="M530.431 224.44C530.187 224.44 529.927 224.388 529.65 224.283C529.377 224.176 529.129 224.026 528.908 223.834C528.748 223.697 528.628 223.533 528.547 223.341C528.469 223.149 528.429 222.949 528.429 222.74C528.429 222.399 528.516 222.132 528.688 221.94C528.864 221.748 529.115 221.652 529.44 221.652C529.557 221.652 529.662 221.671 529.753 221.71C529.847 221.749 529.919 221.8 529.968 221.861C530.02 221.92 530.046 221.979 530.046 222.037L529.758 223.883C529.953 223.964 530.163 224.005 530.387 224.005C530.736 224.005 530.991 223.872 531.154 223.605C531.32 223.334 531.403 222.903 531.403 222.311L531.408 218.268C531.408 218.138 531.356 218.04 531.252 217.975C531.148 217.91 531.029 217.867 530.895 217.848C530.765 217.825 530.601 217.807 530.402 217.794C530.33 217.788 530.283 217.775 530.26 217.755C530.238 217.732 530.226 217.685 530.226 217.613C530.226 217.565 530.241 217.511 530.27 217.452C530.303 217.394 530.344 217.364 530.392 217.364H533.835C533.884 217.364 533.923 217.394 533.952 217.452C533.984 217.511 534.001 217.565 534.001 217.613C534.001 217.669 533.988 217.713 533.962 217.745C533.939 217.775 533.898 217.791 533.84 217.794C533.576 217.804 533.374 217.833 533.234 217.882C533.097 217.931 533.029 218.006 533.029 218.107V222.15C533.029 222.742 532.897 223.209 532.634 223.551C532.373 223.889 532.049 224.122 531.662 224.249C531.278 224.376 530.868 224.44 530.431 224.44ZM538.293 224.435C537.56 224.435 536.919 224.274 536.369 223.951C535.819 223.626 535.396 223.186 535.099 222.633C534.806 222.08 534.66 221.468 534.66 220.797C534.66 220.126 534.806 219.519 535.099 218.976C535.392 218.432 535.814 218.004 536.364 217.692C536.914 217.376 537.557 217.218 538.293 217.218C539.028 217.218 539.671 217.376 540.221 217.692C540.772 218.004 541.193 218.432 541.486 218.976C541.782 219.519 541.93 220.126 541.93 220.797C541.93 221.468 541.782 222.08 541.486 222.633C541.19 223.186 540.767 223.626 540.217 223.951C539.666 224.274 539.025 224.435 538.293 224.435ZM538.312 223.976C538.911 223.976 539.352 223.702 539.635 223.155C539.919 222.605 540.06 221.822 540.06 220.807C540.06 219.798 539.914 219.023 539.621 218.483C539.331 217.942 538.885 217.672 538.283 217.672C537.681 217.672 537.236 217.942 536.95 218.483C536.667 219.02 536.525 219.794 536.525 220.807C536.525 221.816 536.672 222.597 536.965 223.151C537.261 223.701 537.71 223.976 538.312 223.976ZM547.555 220.558C547.969 220.584 548.33 220.668 548.639 220.812C548.949 220.952 549.186 221.144 549.352 221.388C549.522 221.629 549.606 221.912 549.606 222.237C549.606 222.928 549.369 223.444 548.893 223.785C548.421 224.124 547.705 224.293 546.745 224.293H543.102C543.053 224.293 543.013 224.264 542.98 224.205C542.951 224.147 542.936 224.093 542.936 224.044C542.936 223.989 542.948 223.946 542.97 223.917C542.993 223.888 543.036 223.87 543.097 223.863C543.335 223.847 543.537 223.816 543.703 223.771C543.869 223.722 543.952 223.649 543.952 223.551L543.957 218.268C543.957 218.138 543.911 218.04 543.82 217.975C543.729 217.91 543.625 217.867 543.508 217.848C543.39 217.825 543.244 217.807 543.068 217.794C542.997 217.788 542.949 217.775 542.927 217.755C542.904 217.732 542.892 217.685 542.892 217.613C542.892 217.565 542.907 217.511 542.936 217.452C542.969 217.394 543.01 217.364 543.058 217.364H546.447C547.329 217.364 547.997 217.486 548.449 217.731C548.905 217.972 549.133 218.352 549.133 218.873C549.133 219.199 549.063 219.484 548.923 219.728C548.786 219.969 548.599 220.159 548.361 220.299C548.123 220.439 547.855 220.525 547.555 220.558ZM545.597 220.377H546.017C546.447 220.377 546.807 220.273 547.096 220.065C547.389 219.853 547.536 219.516 547.536 219.054C547.536 218.243 547.074 217.838 546.149 217.838H545.597V220.377ZM546.359 223.8C546.789 223.8 547.14 223.694 547.414 223.483C547.691 223.271 547.829 222.861 547.829 222.252C547.829 221.809 547.736 221.486 547.551 221.28C547.365 221.075 547.153 220.952 546.916 220.909C546.681 220.867 546.387 220.846 546.032 220.846H545.597V223.619C545.61 223.668 545.679 223.71 545.802 223.746C545.926 223.782 546.112 223.8 546.359 223.8Z" fill="#473ABD"/>
<rect x="593.261" y="72.2068" width="9" height="14" fill="#F4FAFF" stroke="#473ABD"/>
<rect x="607.261" y="67.2068" width="9" height="19" fill="#F4FAFF" stroke="#473ABD"/>
<rect x="620.261" y="63.2068" width="8" height="23" fill="#F4FAFF" stroke="#473ABD"/>
<g filter="url(#filter0_d)">
<path d="M626.787 48.5504C626.221 47.9827 625.302 48.0402 624.735 48.6788L615.499 59.0862C614.933 59.7248 614.933 60.7028 615.499 61.2705C616.066 61.8382 616.985 61.7808 617.552 61.1421L625.761 51.8911L633.971 60.1149C634.537 60.6826 635.456 60.6251 636.023 59.9865C636.59 59.3478 636.59 58.3699 636.023 57.8021L626.787 48.5504ZM592.926 86.3355C600.213 85.5689 610.692 86.3405 619.253 77.2722L617.269 75.1414C609.707 83.1514 600.742 82.4216 592.81 83.2561L592.926 86.3355ZM619.253 77.2722C627.845 68.1717 627.212 58.2921 627.212 49.616L624.31 49.7976C624.31 58.7334 624.801 67.1638 617.269 75.1414L619.253 77.2722Z" fill="#473ABD"/>
</g>
<path d="M578.209 45.1758C577.357 45.1758 576.574 45.0391 575.859 44.7656C575.148 44.4883 574.57 44.0293 574.125 43.3887C573.68 42.7441 573.457 41.9023 573.457 40.8633C573.457 39.8906 573.687 39.0781 574.148 38.4258C574.613 37.7695 575.199 37.2871 575.906 36.9785C576.617 36.666 577.344 36.5098 578.086 36.5098C578.672 36.5098 579.145 36.5488 579.504 36.627C579.863 36.7051 580.191 36.8027 580.488 36.9199C580.562 36.9512 580.631 36.9766 580.693 36.9961C580.76 37.0156 580.814 37.0254 580.857 37.0254L580.957 38.9004C580.965 38.959 580.918 39.0137 580.816 39.0645C580.719 39.1113 580.637 39.1348 580.57 39.1348L580.488 39.1406C580.387 39.1406 580.289 39.127 580.195 39.0996C580.102 39.0723 580.049 39.0293 580.037 38.9707C579.932 38.3887 579.73 37.9277 579.434 37.5879C579.141 37.2441 578.687 37.0723 578.074 37.0723C577.672 37.0723 577.301 37.1621 576.961 37.3418C576.621 37.5176 576.332 37.8848 576.094 38.4434C575.855 39.002 575.736 39.8086 575.736 40.8633C575.736 41.8633 575.867 42.6426 576.129 43.2012C576.391 43.7559 576.703 44.1309 577.066 44.3262C577.434 44.5215 577.812 44.6191 578.203 44.6191C578.582 44.6191 578.914 44.5273 579.199 44.3437C579.484 44.1562 579.715 43.9102 579.891 43.6055C580.07 43.2969 580.195 42.9551 580.266 42.5801C580.289 42.4512 580.383 42.3867 580.547 42.3867C580.617 42.3867 580.703 42.4062 580.805 42.4453C580.91 42.4805 580.963 42.5273 580.963 42.5859L580.799 44.3672C580.791 44.4297 580.66 44.5293 580.406 44.666C580.152 44.7988 579.828 44.916 579.434 45.0176C579.043 45.123 578.635 45.1758 578.209 45.1758ZM592.343 44.4844C592.429 44.4922 592.486 44.5098 592.513 44.5371C592.54 44.5605 592.554 44.6152 592.554 44.7012C592.554 44.7598 592.534 44.8242 592.495 44.8945C592.46 44.9648 592.413 45 592.355 45H588.71C588.652 45 588.603 44.9648 588.564 44.8945C588.529 44.8242 588.511 44.7598 588.511 44.7012C588.511 44.6348 588.525 44.584 588.552 44.5488C588.579 44.5137 588.63 44.4922 588.704 44.4844L588.939 44.4727C589.13 44.4687 589.263 44.459 589.337 44.4434C589.411 44.4238 589.448 44.3828 589.448 44.3203C589.448 44.293 589.443 44.2617 589.431 44.2266L588.698 42.2051L585.892 42.1992L585.165 44.2266C585.154 44.2539 585.148 44.2793 585.148 44.3027C585.148 44.373 585.196 44.418 585.294 44.4375C585.392 44.457 585.548 44.4687 585.763 44.4727L586.009 44.4844C586.083 44.4922 586.134 44.5137 586.161 44.5488C586.189 44.584 586.202 44.6348 586.202 44.7012C586.202 44.7598 586.183 44.8242 586.144 44.8945C586.109 44.9648 586.062 45 586.003 45H583.525C583.462 45 583.413 44.9707 583.378 44.9121C583.343 44.8535 583.325 44.7832 583.325 44.7012C583.325 44.6152 583.339 44.5605 583.366 44.5371C583.394 44.5098 583.45 44.4922 583.536 44.4844C583.568 44.4805 583.618 44.4785 583.689 44.4785C583.81 44.4746 583.911 44.4648 583.993 44.4492C584.079 44.4297 584.161 44.3887 584.239 44.3262C584.318 44.2598 584.382 44.1621 584.433 44.0332L587.245 36.5566H588.616L591.4 44.0332C591.45 44.166 591.517 44.2656 591.599 44.332C591.681 44.3945 591.765 44.4336 591.851 44.4492C591.937 44.4648 592.044 44.4746 592.173 44.4785C592.251 44.4785 592.308 44.4805 592.343 44.4844ZM587.421 38.0273L586.056 41.7012H588.523L587.421 38.0273ZM595.139 45C595.08 45 595.032 44.9648 594.993 44.8945C594.957 44.8242 594.94 44.7598 594.94 44.7012C594.94 44.6348 594.954 44.584 594.981 44.5488C595.008 44.5137 595.059 44.4922 595.133 44.4844C595.664 44.4414 595.93 44.3164 595.93 44.1094L595.936 37.7695C595.936 37.6133 595.895 37.4961 595.813 37.418C595.731 37.3398 595.637 37.291 595.532 37.2715C595.43 37.248 595.286 37.2246 595.098 37.2012C595.012 37.1934 594.955 37.1777 594.928 37.1543C594.901 37.127 594.887 37.0703 594.887 36.9844C594.887 36.9258 594.905 36.8613 594.94 36.791C594.979 36.7207 595.028 36.6855 595.086 36.6855L595.725 36.6797C595.83 36.6758 595.991 36.6738 596.205 36.6738C596.416 36.6738 596.807 36.666 597.377 36.6504C598.041 36.6348 598.577 36.627 598.983 36.627C600.061 36.627 600.885 36.8086 601.455 37.1719C602.03 37.5352 602.317 38.0937 602.317 38.8477C602.317 39.3398 602.219 39.7402 602.024 40.0488C601.829 40.3574 601.577 40.5937 601.268 40.7578C600.963 40.9219 600.598 41.0586 600.172 41.168C600.524 41.2031 600.809 41.2988 601.028 41.4551C601.25 41.6113 601.424 41.7949 601.549 42.0059C601.674 42.2168 601.813 42.502 601.965 42.8613C602.067 43.0918 602.147 43.2734 602.205 43.4062C602.268 43.5352 602.34 43.6641 602.422 43.793C602.547 44.0312 602.674 44.2012 602.803 44.3027C602.936 44.4043 603.082 44.4629 603.243 44.4785C603.325 44.4863 603.379 44.5078 603.407 44.543C603.438 44.5781 603.454 44.6406 603.454 44.7305C603.454 44.7852 603.434 44.8437 603.395 44.9062C603.36 44.9687 603.313 45 603.254 45H601.256C601.049 45 600.873 44.9238 600.729 44.7715C600.584 44.6191 600.465 44.4316 600.371 44.209C600.282 43.9863 600.176 43.6816 600.055 43.2949C599.922 42.8652 599.801 42.5215 599.692 42.2637C599.582 42.0059 599.434 41.7871 599.246 41.6074C599.063 41.4277 598.834 41.3379 598.561 41.3379H597.864V43.916C597.864 44.0723 597.912 44.1914 598.01 44.2734C598.108 44.3516 598.223 44.4023 598.356 44.4258C598.489 44.4492 598.657 44.4687 598.86 44.4844C598.946 44.4922 599.002 44.5098 599.03 44.5371C599.057 44.5605 599.071 44.6152 599.071 44.7012C599.071 44.7598 599.051 44.8242 599.012 44.8945C598.977 44.9648 598.93 45 598.871 45H595.139ZM598.707 40.834C599.227 40.834 599.625 40.6973 599.903 40.4238C600.184 40.1465 600.325 39.6816 600.325 39.0293C600.325 38.4238 600.19 37.9668 599.92 37.6582C599.655 37.3496 599.245 37.1953 598.69 37.1953H597.864V40.834H598.707ZM606.314 44.7012C606.314 44.6348 606.328 44.584 606.355 44.5488C606.382 44.5137 606.433 44.4922 606.507 44.4844C606.742 44.4648 606.943 44.4277 607.111 44.373C607.279 44.3145 607.363 44.2266 607.363 44.1094V37.7695C607.363 37.6172 607.318 37.502 607.228 37.4238C607.138 37.3457 607.039 37.2949 606.929 37.2715C606.824 37.248 606.671 37.2246 606.472 37.2012C606.386 37.1934 606.33 37.1777 606.302 37.1543C606.275 37.127 606.261 37.0703 606.261 36.9844C606.261 36.9258 606.279 36.8613 606.314 36.791C606.353 36.7207 606.402 36.6855 606.461 36.6855H613.252L613.457 38.5898C613.461 38.6484 613.431 38.6973 613.369 38.7363C613.306 38.7715 613.246 38.7891 613.187 38.7891C612.976 38.7891 612.836 38.7246 612.765 38.5957C612.714 38.498 612.632 38.334 612.519 38.1035C612.41 37.877 612.32 37.7109 612.25 37.6055C612.183 37.4961 612.099 37.4121 611.998 37.3535C611.9 37.2949 611.771 37.2656 611.611 37.2656H609.32V40.4414H610.884C610.978 40.4297 611.068 40.3613 611.154 40.2363C611.24 40.1113 611.312 39.9707 611.371 39.8145C611.429 39.6543 611.464 39.5293 611.476 39.4395C611.492 39.3145 611.582 39.252 611.746 39.252C611.804 39.252 611.873 39.2715 611.951 39.3105C612.029 39.3457 612.068 39.3926 612.068 39.4512V42.0469C612.068 42.1055 612.029 42.1543 611.951 42.1934C611.873 42.2285 611.804 42.2461 611.746 42.2461C611.671 42.2461 611.607 42.2324 611.552 42.2051C611.498 42.1738 611.466 42.123 611.459 42.0527C611.451 41.9551 611.418 41.8223 611.359 41.6543C611.3 41.4824 611.226 41.332 611.136 41.2031C611.046 41.0703 610.951 41.0039 610.849 41.0039H609.32V43.8457C609.32 44.1895 609.498 44.377 609.853 44.4082H611.546C611.781 44.4082 611.984 44.3574 612.156 44.2559C612.332 44.1543 612.496 43.9902 612.648 43.7637C612.804 43.5371 612.976 43.2207 613.164 42.8145C613.191 42.752 613.246 42.7051 613.328 42.6738C613.41 42.6387 613.488 42.6211 613.562 42.6211C613.644 42.6211 613.722 42.6387 613.796 42.6738C613.875 42.709 613.918 42.7578 613.925 42.8203L613.691 45H606.513C606.455 45 606.406 44.9648 606.367 44.8945C606.332 44.8242 606.314 44.7598 606.314 44.7012ZM616.774 44.7012C616.774 44.6348 616.788 44.584 616.815 44.5488C616.843 44.5137 616.893 44.4922 616.968 44.4844C617.202 44.4648 617.403 44.4277 617.571 44.373C617.739 44.3145 617.823 44.2266 617.823 44.1094V37.7695C617.823 37.6172 617.778 37.502 617.688 37.4238C617.598 37.3457 617.499 37.2949 617.389 37.2715C617.284 37.248 617.132 37.2246 616.932 37.2012C616.846 37.1934 616.79 37.1777 616.762 37.1543C616.735 37.127 616.721 37.0703 616.721 36.9844C616.721 36.9258 616.739 36.8613 616.774 36.791C616.813 36.7207 616.862 36.6855 616.921 36.6855H623.712L623.917 38.5898C623.921 38.6484 623.891 38.6973 623.829 38.7363C623.766 38.7715 623.706 38.7891 623.647 38.7891C623.436 38.7891 623.296 38.7246 623.225 38.5957C623.175 38.498 623.093 38.334 622.979 38.1035C622.87 37.877 622.78 37.7109 622.71 37.6055C622.643 37.4961 622.559 37.4121 622.458 37.3535C622.36 37.2949 622.231 37.2656 622.071 37.2656H619.78V40.4414H621.345C621.438 40.4297 621.528 40.3613 621.614 40.2363C621.7 40.1113 621.772 39.9707 621.831 39.8145C621.889 39.6543 621.925 39.5293 621.936 39.4395C621.952 39.3145 622.042 39.252 622.206 39.252C622.264 39.252 622.333 39.2715 622.411 39.3105C622.489 39.3457 622.528 39.3926 622.528 39.4512V42.0469C622.528 42.1055 622.489 42.1543 622.411 42.1934C622.333 42.2285 622.264 42.2461 622.206 42.2461C622.132 42.2461 622.067 42.2324 622.012 42.2051C621.958 42.1738 621.927 42.123 621.919 42.0527C621.911 41.9551 621.878 41.8223 621.819 41.6543C621.761 41.4824 621.686 41.332 621.596 41.2031C621.507 41.0703 621.411 41.0039 621.309 41.0039H619.78V43.8457C619.78 44.1895 619.958 44.377 620.313 44.4082H622.007C622.241 44.4082 622.444 44.3574 622.616 44.2559C622.792 44.1543 622.956 43.9902 623.108 43.7637C623.264 43.5371 623.436 43.2207 623.624 42.8145C623.651 42.752 623.706 42.7051 623.788 42.6738C623.87 42.6387 623.948 42.6211 624.022 42.6211C624.104 42.6211 624.182 42.6387 624.257 42.6738C624.335 42.709 624.378 42.7578 624.386 42.8203L624.151 45H616.973C616.915 45 616.866 44.9648 616.827 44.8945C616.792 44.8242 616.774 44.7598 616.774 44.7012ZM627.434 45C627.375 45 627.326 44.9648 627.287 44.8945C627.252 44.8242 627.234 44.7598 627.234 44.7012C627.234 44.6348 627.248 44.584 627.275 44.5488C627.303 44.5137 627.354 44.4922 627.428 44.4844C627.959 44.4414 628.225 44.3164 628.225 44.1094L628.23 37.7695C628.23 37.6133 628.189 37.4961 628.107 37.418C628.025 37.3398 627.932 37.291 627.826 37.2715C627.725 37.248 627.58 37.2246 627.393 37.2012C627.307 37.1934 627.25 37.1777 627.223 37.1543C627.195 37.127 627.182 37.0703 627.182 36.9844C627.182 36.9258 627.199 36.8613 627.234 36.791C627.273 36.7207 627.322 36.6855 627.381 36.6855L628.02 36.6797C628.125 36.6758 628.285 36.6738 628.5 36.6738C628.711 36.6738 629.102 36.666 629.672 36.6504C630.336 36.6348 630.871 36.627 631.277 36.627C632.355 36.627 633.18 36.8086 633.75 37.1719C634.324 37.5352 634.611 38.0937 634.611 38.8477C634.611 39.3398 634.514 39.7402 634.318 40.0488C634.123 40.3574 633.871 40.5937 633.562 40.7578C633.258 40.9219 632.893 41.0586 632.467 41.168C632.818 41.2031 633.104 41.2988 633.322 41.4551C633.545 41.6113 633.719 41.7949 633.844 42.0059C633.969 42.2168 634.107 42.502 634.26 42.8613C634.361 43.0918 634.441 43.2734 634.5 43.4062C634.562 43.5352 634.635 43.6641 634.717 43.793C634.842 44.0312 634.969 44.2012 635.098 44.3027C635.23 44.4043 635.377 44.4629 635.537 44.4785C635.619 44.4863 635.674 44.5078 635.701 44.543C635.732 44.5781 635.748 44.6406 635.748 44.7305C635.748 44.7852 635.729 44.8437 635.689 44.9062C635.654 44.9687 635.607 45 635.549 45H633.551C633.344 45 633.168 44.9238 633.023 44.7715C632.879 44.6191 632.76 44.4316 632.666 44.209C632.576 43.9863 632.471 43.6816 632.35 43.2949C632.217 42.8652 632.096 42.5215 631.986 42.2637C631.877 42.0059 631.729 41.7871 631.541 41.6074C631.357 41.4277 631.129 41.3379 630.855 41.3379H630.158V43.916C630.158 44.0723 630.207 44.1914 630.305 44.2734C630.402 44.3516 630.518 44.4023 630.65 44.4258C630.783 44.4492 630.951 44.4687 631.154 44.4844C631.24 44.4922 631.297 44.5098 631.324 44.5371C631.352 44.5605 631.365 44.6152 631.365 44.7012C631.365 44.7598 631.346 44.8242 631.307 44.8945C631.271 44.9648 631.225 45 631.166 45H627.434ZM631.002 40.834C631.521 40.834 631.92 40.6973 632.197 40.4238C632.479 40.1465 632.619 39.6816 632.619 39.0293C632.619 38.4238 632.484 37.9668 632.215 37.6582C631.949 37.3496 631.539 37.1953 630.984 37.1953H630.158V40.834H631.002Z" fill="#F4FAFF"/>
<defs>
<filter id="filter0_d" x="591.81" y="48.1596" width="45.638" height="40.1759" filterUnits="userSpaceOnUse" color-interpolation-filters="sRGB">
<feFlood flood-opacity="0" result="BackgroundImageFix"/>
<feColorMatrix in="SourceAlpha" type="matrix" values="0 0 0 0 0 0 0 0 0 0 0 0 0 0 0 0 0 0 127 0"/>
<feOffset dy="1"/>
<feGaussianBlur stdDeviation="0.5"/>
<feColorMatrix type="matrix" values="0 0 0 0 0.956863 0 0 0 0 0.980392 0 0 0 0 1 0 0 0 0.25 0"/>
<feBlend mode="normal" in2="BackgroundImageFix" result="effect1_dropShadow"/>
<feBlend mode="normal" in="SourceGraphic" in2="effect1_dropShadow" result="shape"/>
</filter>
</defs>
</svg>
