<svg width="37" height="28" viewBox="0 0 37 28" fill="none" xmlns="http://www.w3.org/2000/svg">
<path d="M5.26172 27.3516C4.67578 27.3516 4.05078 27.2266 3.38672 26.9766C2.73047 26.7188 2.13672 26.3594 1.60547 25.8984C1.22266 25.5703 0.933594 25.1758 0.738281 24.7148C0.550781 24.2539 0.457031 23.7734 0.457031 23.2734C0.457031 22.4531 0.664062 21.8125 1.07812 21.3516C1.5 20.8906 2.10156 20.6602 2.88281 20.6602C3.16406 20.6602 3.41406 20.707 3.63281 20.8008C3.85938 20.8945 4.03125 21.0156 4.14844 21.1641C4.27344 21.3047 4.33594 21.4453 4.33594 21.5859L3.64453 26.0156C4.11328 26.2109 4.61719 26.3086 5.15625 26.3086C5.99219 26.3086 6.60547 25.9883 6.99609 25.3477C7.39453 24.6992 7.59375 23.6641 7.59375 22.2422L7.60547 12.5391C7.60547 12.2266 7.48047 11.9922 7.23047 11.8359C6.98047 11.6797 6.69531 11.5781 6.375 11.5312C6.0625 11.4766 5.66797 11.4336 5.19141 11.4023C5.01953 11.3867 4.90625 11.3555 4.85156 11.3086C4.79688 11.2539 4.76953 11.1406 4.76953 10.9688C4.76953 10.8516 4.80469 10.7227 4.875 10.582C4.95312 10.4414 5.05078 10.3711 5.16797 10.3711H13.4297C13.5469 10.3711 13.6406 10.4414 13.7109 10.582C13.7891 10.7227 13.8281 10.8516 13.8281 10.9688C13.8281 11.1016 13.7969 11.207 13.7344 11.2852C13.6797 11.3555 13.582 11.3945 13.4414 11.4023C12.8086 11.4258 12.3242 11.4961 11.9883 11.6133C11.6602 11.7305 11.4961 11.9102 11.4961 12.1523V21.8555C11.4961 23.2773 11.1797 24.3984 10.5469 25.2188C9.92188 26.0312 9.14453 26.5898 8.21484 26.8945C7.29297 27.1992 6.30859 27.3516 5.26172 27.3516Z" fill="#32C98A"/>
<path d="M16.3086 17.3516C15.5586 17.3516 14.8906 17.2773 14.3047 17.1289C13.7188 16.9805 13.2734 16.8477 12.9688 16.7305C12.6719 16.6133 12.4922 16.543 12.4297 16.5195C12.3047 16.4727 12.1562 16.4062 11.9844 16.3203C11.9609 16.3125 11.9102 16.2891 11.832 16.25C11.7539 16.2109 11.6836 16.1914 11.6211 16.1914C11.5352 16.1914 11.4609 16.2148 11.3984 16.2617C11.3438 16.3086 11.2773 16.375 11.1992 16.4609C11.043 16.6406 10.8945 16.7656 10.7539 16.8359C10.6211 16.9062 10.4805 16.9414 10.332 16.9414C10.1289 16.9414 9.96875 16.8906 9.85156 16.7891C9.73438 16.6797 9.67969 16.543 9.6875 16.3789C9.70312 16.207 9.71094 16.0312 9.71094 15.8516V15.3828C9.71094 14.8594 9.69141 14.332 9.65234 13.8008C9.62109 13.2695 9.60156 12.9609 9.59375 12.875C9.55469 12.3906 9.53516 12.0586 9.53516 11.8789C9.53516 11.332 9.76172 11.0586 10.2148 11.0586C10.5898 11.0586 10.8242 11.2227 10.918 11.5508C11.0039 11.8789 11.1055 12.2031 11.2227 12.5234C11.3398 12.8438 11.5039 13.1875 11.7148 13.5547C12.1914 14.375 12.8477 15.0352 13.6836 15.5352C14.5195 16.0352 15.4258 16.2852 16.4023 16.2852C16.8555 16.2852 17.2773 16.207 17.668 16.0508C18.0586 15.8945 18.3711 15.6602 18.6055 15.3477C18.8477 15.0273 18.9688 14.6406 18.9688 14.1875C18.9688 13.5625 18.7969 13.0195 18.4531 12.5586C18.1094 12.0898 17.6914 11.6953 17.1992 11.375C16.7148 11.0469 16.0586 10.668 15.2305 10.2383L14.4922 9.85156C13.4922 9.32031 12.6953 8.85938 12.1016 8.46875C11.5156 8.07031 11 7.55469 10.5547 6.92188C10.1172 6.28906 9.89844 5.53516 9.89844 4.66016C9.89844 3.74609 10.1484 2.9375 10.6484 2.23438C11.1562 1.53125 11.8594 0.988281 12.7578 0.605469C13.6641 0.222656 14.6953 0.03125 15.8516 0.03125C16.4531 0.03125 16.957 0.0703125 17.3633 0.148438C17.7773 0.226563 18.1797 0.332031 18.5703 0.464844C18.6094 0.480469 18.7188 0.515625 18.8984 0.570312C19.0859 0.617188 19.25 0.640625 19.3906 0.640625C19.5078 0.640625 19.5938 0.625 19.6484 0.59375C19.7109 0.5625 19.7734 0.515625 19.8359 0.453125C19.9062 0.382812 19.9648 0.332031 20.0117 0.300781C20.0977 0.246094 20.207 0.21875 20.3398 0.21875C20.543 0.21875 20.7305 0.265625 20.9023 0.359375C21.082 0.445312 21.1719 0.546875 21.1719 0.664062C21.1797 1.0625 21.2109 1.55469 21.2656 2.14062C21.3203 2.72656 21.3555 3.10547 21.3711 3.27734C21.4336 3.79297 21.4648 4.125 21.4648 4.27344C21.4648 4.51562 21.3945 4.69141 21.2539 4.80078C21.1211 4.90234 20.9453 4.95312 20.7266 4.95312C20.4453 4.95312 20.25 4.86328 20.1406 4.68359C20.4375 5.27734 20.3945 5.08984 20.0117 4.12109C19.6367 3.15234 19.1445 2.40234 18.5352 1.87109C17.9336 1.33203 17.0977 1.0625 16.0273 1.0625C15.2227 1.0625 14.543 1.22656 13.9883 1.55469C13.4414 1.875 13.168 2.38672 13.168 3.08984C13.168 3.68359 13.3672 4.22266 13.7656 4.70703C14.1641 5.18359 14.6484 5.59766 15.2188 5.94922C15.7969 6.30078 16.5312 6.69922 17.4219 7.14453C18.4688 7.66016 19.3359 8.14844 20.0234 8.60938C20.7188 9.0625 21.3008 9.61328 21.7695 10.2617C22.2461 10.9102 22.4844 11.6641 22.4844 12.5234C22.4844 13.4922 22.2031 14.3438 21.6406 15.0781C21.0859 15.8047 20.3359 16.3672 19.3906 16.7656C18.4531 17.1562 17.4258 17.3516 16.3086 17.3516Z" fill="#32C98A"/>
<path d="M27.832 27.3398C26.0742 27.3398 24.5352 26.9531 23.2148 26.1797C21.8945 25.3984 20.8789 24.3438 20.168 23.0156C19.4648 21.6875 19.1133 20.2188 19.1133 18.6094C19.1133 17 19.4648 15.543 20.168 14.2383C20.8711 12.9336 21.8828 11.9062 23.2031 11.1562C24.5234 10.3984 26.0664 10.0195 27.832 10.0195C29.5977 10.0195 31.1406 10.3984 32.4609 11.1562C33.7812 11.9062 34.793 12.9336 35.4961 14.2383C36.207 15.543 36.5625 17 36.5625 18.6094C36.5625 20.2188 36.207 21.6875 35.4961 23.0156C34.7852 24.3438 33.7695 25.3984 32.4492 26.1797C31.1289 26.9531 29.5898 27.3398 27.832 27.3398ZM27.8789 26.2383C29.3164 26.2383 30.375 25.582 31.0547 24.2695C31.7344 22.9492 32.0742 21.0703 32.0742 18.6328C32.0742 16.2109 31.7227 14.3516 31.0195 13.0547C30.3242 11.7578 29.2539 11.1094 27.8086 11.1094C26.3633 11.1094 25.2969 11.7578 24.6094 13.0547C23.9297 14.3438 23.5898 16.2031 23.5898 18.6328C23.5898 21.0547 23.9414 22.9297 24.6445 24.2578C25.3555 25.5781 26.4336 26.2383 27.8789 26.2383Z" fill="#32C98A"/>
</svg>
