<svg width="319" height="254" viewBox="0 0 319 254" fill="none" xmlns="http://www.w3.org/2000/svg">
<g filter="url(#filter0_i)">
<circle r="72.5" transform="matrix(0.724594 -0.689176 0.683916 0.72956 141.876 73.1056)" fill="white"/>
</g>
<circle r="67.5" transform="matrix(0.724594 -0.689176 0.683916 0.72956 141.876 73.1056)" stroke="#3D556A" stroke-width="10"/>
<path d="M187.652 133.447C196.592 127.72 196.669 127.605 202.662 118.662C208.655 109.718 291.543 217.225 310.933 230.184C330.324 243.144 308.286 264.852 295.923 244.969C283.561 225.087 178.712 139.173 187.652 133.447Z" fill="#3D556A"/>
<g filter="url(#filter1_i)">
<ellipse rx="6.05521" ry="6.05772" transform="matrix(0.724594 -0.689176 0.683916 0.72956 306.531 240.593)" fill="white"/>
</g>
<path d="M90.25 90C90.0156 90 89.8203 89.8594 89.6641 89.5781C89.5234 89.2969 89.4531 89.0391 89.4531 88.8047C89.4531 88.5391 89.5078 88.3359 89.6172 88.1953C89.7266 88.0547 89.9297 87.9688 90.2266 87.9375C92.6484 87.75 93.8594 87.0938 93.8594 85.9688V61.0781C93.8594 60.4688 93.6641 60.0078 93.2734 59.6953C92.8828 59.3828 92.4688 59.1797 92.0312 59.0859C91.5938 58.9922 90.9453 58.8984 90.0859 58.8047C89.7422 58.7734 89.5156 58.7109 89.4062 58.6172C89.2969 58.5078 89.2422 58.2812 89.2422 57.9375C89.2422 57.7031 89.3125 57.4453 89.4531 57.1641C89.6094 56.8828 89.8047 56.7422 90.0391 56.7422H97.9609L116.172 82.6641H116.453V61.0781C116.453 60.4688 116.219 60.0078 115.75 59.6953C115.297 59.3828 114.844 59.1875 114.391 59.1094C113.938 59.0156 113.219 58.9141 112.234 58.8047C111.891 58.7734 111.664 58.7109 111.555 58.6172C111.445 58.5078 111.391 58.2812 111.391 57.9375C111.391 57.7031 111.461 57.4453 111.602 57.1641C111.758 56.8828 111.953 56.7422 112.188 56.7422H122.852C123.086 56.7422 123.273 56.8828 123.414 57.1641C123.57 57.4453 123.648 57.7031 123.648 57.9375C123.648 58.2031 123.594 58.4062 123.484 58.5469C123.375 58.6875 123.172 58.7734 122.875 58.8047C122.75 58.8203 122.289 58.8672 121.492 58.9453C120.695 59.0234 120.039 59.25 119.523 59.625C119.023 59.9844 118.773 60.4688 118.773 61.0781V87.3516C118.773 87.6328 118.797 87.9297 118.844 88.2422L118.914 89.0625C118.961 89.6562 118.836 90.0781 118.539 90.3281C118.258 90.5781 117.914 90.7031 117.508 90.7031C117.273 90.7031 117.031 90.6484 116.781 90.5391C116.547 90.4453 116.367 90.3281 116.242 90.1875L96.5781 62.9531H96.1797V85.6641C96.1797 86.2734 96.3906 86.7344 96.8125 87.0469C97.2344 87.3594 97.6719 87.5625 98.125 87.6562C98.5781 87.7344 99.2578 87.8281 100.164 87.9375C100.508 87.9688 100.734 88.0391 100.844 88.1484C100.953 88.2422 101.008 88.4609 101.008 88.8047C101.008 89.0391 100.93 89.2969 100.773 89.5781C100.633 89.8594 100.445 90 100.211 90H90.25ZM142.633 90.6797C139.445 90.6797 136.672 89.9062 134.312 88.3594C131.953 86.8125 130.148 84.7109 128.898 82.0547C127.664 79.3984 127.047 76.4531 127.047 73.2188C127.047 70 127.68 67.0859 128.945 64.4766C130.227 61.8672 132.062 59.8125 134.453 58.3125C136.844 56.7969 139.648 56.0391 142.867 56.0391C146.07 56.0391 148.836 56.7969 151.164 58.3125C153.508 59.8125 155.289 61.8672 156.508 64.4766C157.742 67.0703 158.359 69.9844 158.359 73.2188C158.359 76.4531 157.727 79.3984 156.461 82.0547C155.195 84.7109 153.375 86.8125 151 88.3594C148.625 89.9062 145.836 90.6797 142.633 90.6797ZM142.727 88.4766C145.242 88.4766 147.211 87.8828 148.633 86.6953C150.07 85.4922 151.07 83.7891 151.633 81.5859C152.211 79.3828 152.5 76.6094 152.5 73.2656C152.5 69.9531 152.203 67.2031 151.609 65.0156C151.016 62.8281 149.992 61.1484 148.539 59.9766C147.102 58.8047 145.125 58.2188 142.609 58.2188C140.078 58.2188 138.102 58.8047 136.68 59.9766C135.258 61.1328 134.266 62.8047 133.703 64.9922C133.141 67.1641 132.859 69.9219 132.859 73.2656C132.859 76.5938 133.148 79.3672 133.727 81.5859C134.32 83.7891 135.336 85.4922 136.773 86.6953C138.227 87.8828 140.211 88.4766 142.727 88.4766ZM168.203 90C167.969 90 167.773 89.8594 167.617 89.5781C167.477 89.2969 167.406 89.0391 167.406 88.8047C167.406 88.5391 167.461 88.3359 167.57 88.1953C167.68 88.0547 167.883 87.9688 168.18 87.9375C169.586 87.8594 170.734 87.6719 171.625 87.375C172.531 87.0625 172.984 86.5156 172.984 85.7344L173.008 59.0625H167.055C165.914 59.0625 165.078 59.9219 164.547 61.6406C164.016 63.3438 163.688 64.9922 163.562 66.5859C163.531 66.8828 163.445 67.0859 163.305 67.1953C163.164 67.3047 162.961 67.3594 162.695 67.3594C162.461 67.3594 162.195 67.2891 161.898 67.1484C161.617 66.9922 161.484 66.7969 161.5 66.5625C161.797 60.0156 162.07 56.7422 162.32 56.7422H188.523C188.68 56.7422 188.836 57.875 188.992 60.1406C189.148 62.3906 189.258 64.5312 189.32 66.5625C189.32 66.7969 189.18 66.9922 188.898 67.1484C188.617 67.2891 188.359 67.3594 188.125 67.3594C187.859 67.3594 187.656 67.3047 187.516 67.1953C187.375 67.0859 187.289 66.8828 187.258 66.5859C187.133 64.9766 186.805 63.3203 186.273 61.6172C185.758 59.9141 184.93 59.0625 183.789 59.0625H177.859L177.836 85.6641C177.836 86.2891 178.078 86.7578 178.562 87.0703C179.047 87.3828 179.602 87.5938 180.227 87.7031C180.852 87.7969 181.633 87.875 182.57 87.9375C182.914 87.9688 183.141 88.0391 183.25 88.1484C183.359 88.2422 183.414 88.4609 183.414 88.8047C183.414 89.0391 183.336 89.2969 183.18 89.5781C183.039 89.8594 182.852 90 182.617 90H168.203Z" fill="#3D556A"/>
<path d="M89.6641 89.5781L88.7696 90.0253L88.7794 90.0448L88.7899 90.0638L89.6641 89.5781ZM90.2266 87.9375L90.1494 86.9405L90.1356 86.9415L90.1219 86.943L90.2266 87.9375ZM90.0859 58.8047L90.1944 57.8106L90.1854 57.8096L90.1765 57.8088L90.0859 58.8047ZM89.4062 58.6172L88.6991 59.3243L88.7263 59.3515L88.7555 59.3764L89.4062 58.6172ZM89.4531 57.1641L88.579 56.6784L88.5684 56.6974L88.5587 56.7168L89.4531 57.1641ZM97.9609 56.7422L98.7792 56.1673L98.4805 55.7422H97.9609V56.7422ZM116.172 82.6641L115.354 83.2389L115.652 83.6641H116.172V82.6641ZM116.453 82.6641V83.6641H117.453V82.6641H116.453ZM115.75 59.6953L115.182 60.5185L115.189 60.523L115.195 60.5274L115.75 59.6953ZM114.391 59.1094L114.188 60.0886L114.204 60.092L114.221 60.0948L114.391 59.1094ZM112.234 58.8047L112.345 57.8108L112.335 57.8097L112.325 57.8088L112.234 58.8047ZM111.555 58.6172L110.848 59.3243L110.875 59.3515L110.904 59.3764L111.555 58.6172ZM111.602 57.1641L110.727 56.6784L110.717 56.6974L110.707 56.7168L111.602 57.1641ZM123.414 57.1641L122.52 57.6113L122.529 57.6307L122.54 57.6497L123.414 57.1641ZM122.875 58.8047L122.77 57.8102L122.761 57.8112L122.751 57.8124L122.875 58.8047ZM119.523 59.625L120.107 60.437L120.112 60.4337L119.523 59.625ZM118.844 88.2422L119.84 88.1568L119.837 88.1252L119.833 88.0938L118.844 88.2422ZM118.914 89.0625L119.911 88.9838L119.91 88.9771L118.914 89.0625ZM118.539 90.3281L117.895 89.5632L117.885 89.5718L117.875 89.5807L118.539 90.3281ZM116.781 90.5391L117.182 89.6229L117.167 89.6165L117.153 89.6106L116.781 90.5391ZM116.242 90.1875L115.431 90.7729L115.461 90.814L115.495 90.8519L116.242 90.1875ZM96.5781 62.9531L97.3889 62.3677L97.0895 61.9531H96.5781V62.9531ZM96.1797 62.9531V61.9531H95.1797V62.9531H96.1797ZM98.125 87.6562L97.9224 88.6355L97.9387 88.6389L97.9551 88.6417L98.125 87.6562ZM100.164 87.9375L100.044 88.9303L100.059 88.9321L100.074 88.9334L100.164 87.9375ZM100.844 88.1484L100.137 88.8555L100.164 88.8827L100.193 88.9077L100.844 88.1484ZM100.773 89.5781L99.8993 89.0925L99.8887 89.1115L99.879 89.1309L100.773 89.5781ZM90.25 89C90.2931 89 90.3422 89.0068 90.3926 89.0232C90.4427 89.0396 90.4829 89.062 90.512 89.083C90.5669 89.1225 90.5678 89.1457 90.5382 89.0925L88.7899 90.0638C89.048 90.5283 89.5212 91 90.25 91V89ZM90.5585 89.1309C90.4647 88.9433 90.4531 88.8401 90.4531 88.8047H88.4531C88.4531 89.238 88.5822 89.6505 88.7696 90.0253L90.5585 89.1309ZM90.4531 88.8047C90.4531 88.7723 90.4548 88.7488 90.4566 88.7331C90.4585 88.7174 90.4602 88.7113 90.4598 88.7131C90.4586 88.7172 90.447 88.7573 90.4065 88.8093L88.8278 87.5814C88.5293 87.9652 88.4531 88.4212 88.4531 88.8047H90.4531ZM90.4065 88.8093C90.3342 88.9022 90.2599 88.9384 90.2412 88.9464C90.2263 88.9527 90.2487 88.9407 90.3312 88.932L90.1219 86.943C89.7279 86.9845 89.1873 87.1192 88.8278 87.5814L90.4065 88.8093ZM90.3038 88.9345C91.5638 88.837 92.6382 88.6117 93.4276 88.1839C94.2698 87.7275 94.8594 86.9865 94.8594 85.9688H92.8594C92.8594 86.076 92.8435 86.2256 92.4747 86.4255C92.0532 86.6539 91.3112 86.8505 90.1494 86.9405L90.3038 88.9345ZM94.8594 85.9688V61.0781H92.8594V85.9688H94.8594ZM94.8594 61.0781C94.8594 60.2382 94.5778 59.4582 93.8981 58.9144L92.6487 60.4762C92.7503 60.5574 92.8594 60.6993 92.8594 61.0781H94.8594ZM93.8981 58.9144C93.4007 58.5165 92.8472 58.2381 92.2408 58.1081L91.8217 60.0637C92.0903 60.1213 92.3649 60.2491 92.6487 60.4762L93.8981 58.9144ZM92.2408 58.1081C91.752 58.0034 91.0626 57.9053 90.1944 57.8106L89.9775 59.7988C90.828 59.8916 91.4355 59.981 91.8217 60.0637L92.2408 58.1081ZM90.1765 57.8088C90.1101 57.8028 90.0558 57.7958 90.0123 57.7886C89.9684 57.7814 89.9399 57.7747 89.9241 57.7704C89.9074 57.7658 89.9125 57.7658 89.932 57.7749C89.9504 57.7835 89.9986 57.8079 90.057 57.8579L88.7555 59.3764C88.9707 59.5609 89.2161 59.6498 89.3923 59.6984C89.5828 59.7509 89.789 59.7818 89.9954 59.8006L90.1765 57.8088ZM90.1134 57.9101C90.1786 57.9753 90.2148 58.037 90.233 58.0743C90.251 58.1112 90.2559 58.1332 90.2553 58.1306C90.2548 58.1287 90.2512 58.1125 90.2479 58.0779C90.2446 58.0438 90.2422 57.9976 90.2422 57.9375H88.2422C88.2422 58.1548 88.2587 58.3828 88.3111 58.5999C88.3613 58.8078 88.4643 59.0895 88.6991 59.3243L90.1134 57.9101ZM90.2422 57.9375C90.2422 57.9021 90.2537 57.7989 90.3476 57.6113L88.5587 56.7168C88.3713 57.0917 88.2422 57.5042 88.2422 57.9375H90.2422ZM90.3273 57.6497C90.3568 57.5965 90.356 57.6197 90.3011 57.6592C90.2719 57.6802 90.2317 57.7026 90.1816 57.719C90.1313 57.7354 90.0822 57.7422 90.0391 57.7422V55.7422C89.3103 55.7422 88.837 56.2139 88.579 56.6784L90.3273 57.6497ZM90.0391 57.7422H97.9609V55.7422H90.0391V57.7422ZM97.1427 57.317L115.354 83.2389L116.99 82.0892L98.7792 56.1673L97.1427 57.317ZM116.172 83.6641H116.453V81.6641H116.172V83.6641ZM117.453 82.6641V61.0781H115.453V82.6641H117.453ZM117.453 61.0781C117.453 60.1668 117.078 59.3785 116.305 58.8633L115.195 60.5274C115.36 60.6371 115.453 60.7707 115.453 61.0781H117.453ZM116.318 58.8721C115.768 58.4933 115.182 58.231 114.561 58.1239L114.221 60.0948C114.506 60.144 114.825 60.2723 115.182 60.5185L116.318 58.8721ZM114.593 58.1301C114.091 58.0263 113.334 57.9207 112.345 57.8108L112.124 59.7986C113.104 59.9075 113.784 60.0049 114.188 60.0886L114.593 58.1301ZM112.325 57.8088C112.259 57.8028 112.204 57.7958 112.161 57.7886C112.117 57.7814 112.088 57.7747 112.073 57.7704C112.056 57.7658 112.061 57.7658 112.08 57.7749C112.099 57.7835 112.147 57.8079 112.205 57.8579L110.904 59.3764C111.119 59.5609 111.365 59.6498 111.541 59.6984C111.731 59.7509 111.937 59.7818 112.144 59.8006L112.325 57.8088ZM112.262 57.9101C112.327 57.9753 112.363 58.037 112.381 58.0743C112.399 58.1112 112.404 58.1332 112.404 58.1306C112.403 58.1287 112.4 58.1125 112.396 58.0779C112.393 58.0438 112.391 57.9976 112.391 57.9375H110.391C110.391 58.1548 110.407 58.3828 110.46 58.5999C110.51 58.8078 110.613 59.0895 110.848 59.3243L112.262 57.9101ZM112.391 57.9375C112.391 57.9021 112.402 57.7989 112.496 57.6113L110.707 56.7168C110.52 57.0917 110.391 57.5042 110.391 57.9375H112.391ZM112.476 57.6497C112.505 57.5965 112.504 57.6197 112.45 57.6592C112.42 57.6802 112.38 57.7026 112.33 57.719C112.28 57.7354 112.231 57.7422 112.188 57.7422V55.7422C111.459 55.7422 110.985 56.2139 110.727 56.6784L112.476 57.6497ZM112.188 57.7422H122.852V55.7422H112.188V57.7422ZM122.852 57.7422C122.809 57.7422 122.757 57.7355 122.702 57.7172C122.648 57.699 122.602 57.6735 122.568 57.6477C122.503 57.5986 122.496 57.5643 122.52 57.6113L124.308 56.7168C124.066 56.2319 123.595 55.7422 122.852 55.7422V57.7422ZM122.54 57.6497C122.643 57.8352 122.648 57.9247 122.648 57.9375H124.648C124.648 57.4816 124.498 57.0554 124.288 56.6784L122.54 57.6497ZM122.648 57.9375C122.648 57.9699 122.647 57.9934 122.645 58.0091C122.643 58.0248 122.641 58.0309 122.642 58.0291C122.643 58.025 122.655 57.9849 122.695 57.9329L124.274 59.1608C124.572 58.777 124.648 58.321 124.648 57.9375H122.648ZM122.695 57.9329C122.767 57.8399 122.842 57.8037 122.86 57.7958C122.875 57.7895 122.853 57.8015 122.77 57.8102L122.98 59.7992C123.374 59.7577 123.914 59.623 124.274 59.1608L122.695 57.9329ZM122.751 57.8124C122.643 57.8259 122.2 57.8711 121.395 57.9501L121.59 59.9405C122.378 59.8633 122.857 59.8147 122.999 59.797L122.751 57.8124ZM121.395 57.9501C120.465 58.0412 119.627 58.3129 118.935 58.8163L120.112 60.4337C120.451 60.1871 120.925 60.0057 121.59 59.9405L121.395 57.9501ZM118.94 58.813C118.182 59.3579 117.773 60.1429 117.773 61.0781H119.773C119.773 60.7946 119.865 60.6109 120.107 60.437L118.94 58.813ZM117.773 61.0781V87.3516H119.773V61.0781H117.773ZM117.773 87.3516C117.773 87.6881 117.801 88.0348 117.855 88.3905L119.833 88.0938C119.792 87.8245 119.773 87.5775 119.773 87.3516H117.773ZM117.847 88.3276L117.918 89.1479L119.91 88.9771L119.84 88.1568L117.847 88.3276ZM117.917 89.1412C117.934 89.3563 117.914 89.4803 117.897 89.5401C117.882 89.5893 117.874 89.5806 117.895 89.5632L119.183 91.093C119.837 90.5421 119.969 89.7212 119.911 88.9838L117.917 89.1412ZM117.875 89.5807C117.792 89.6545 117.69 89.7031 117.508 89.7031V91.7031C118.138 91.7031 118.724 91.5018 119.203 91.0755L117.875 89.5807ZM117.508 89.7031C117.432 89.7031 117.326 89.686 117.182 89.6229L116.38 91.4552C116.736 91.6109 117.115 91.7031 117.508 91.7031V89.7031ZM117.153 89.6106C117.015 89.5557 116.982 89.5151 116.99 89.5231L115.495 90.8519C115.752 91.1412 116.078 91.3349 116.41 91.4675L117.153 89.6106ZM117.053 89.6021L97.3889 62.3677L95.7674 63.5385L115.431 90.7729L117.053 89.6021ZM96.5781 61.9531H96.1797V63.9531H96.5781V61.9531ZM95.1797 62.9531V85.6641H97.1797V62.9531H95.1797ZM95.1797 85.6641C95.1797 86.5323 95.4975 87.3173 96.2173 87.8504L97.4077 86.2433C97.2837 86.1514 97.1797 86.0146 97.1797 85.6641H95.1797ZM96.2173 87.8504C96.74 88.2376 97.3092 88.5086 97.9224 88.6355L98.3276 86.677C98.0345 86.6164 97.7287 86.4811 97.4077 86.2433L96.2173 87.8504ZM97.9551 88.6417C98.434 88.7243 99.1341 88.8205 100.044 88.9303L100.284 86.9447C99.3815 86.8358 98.7222 86.7445 98.2949 86.6708L97.9551 88.6417ZM100.074 88.9334C100.136 88.9391 100.186 88.9459 100.225 88.9528C100.264 88.9597 100.286 88.9658 100.295 88.9687C100.305 88.9719 100.294 88.9692 100.268 88.9555C100.243 88.9419 100.193 88.9116 100.137 88.8555L101.551 87.4413C101.336 87.2267 101.081 87.1185 100.888 87.0586C100.685 86.9956 100.468 86.961 100.255 86.9416L100.074 88.9334ZM100.193 88.9077C100.105 88.8325 100.056 88.7556 100.03 88.707C100.005 88.6593 99.9972 88.6277 99.9967 88.6253C99.9958 88.6219 99.9991 88.6342 100.002 88.6671C100.005 88.6992 100.008 88.7444 100.008 88.8047H102.008C102.008 88.589 101.992 88.3588 101.937 88.1403C101.886 87.9353 101.773 87.6278 101.495 87.3892L100.193 88.9077ZM100.008 88.8047C100.008 88.8175 100.002 88.907 99.8993 89.0925L101.648 90.0638C101.857 89.6868 102.008 89.2606 102.008 88.8047H100.008ZM99.879 89.1309C99.8555 89.1779 99.8619 89.1436 99.9273 89.0945C99.9618 89.0687 100.007 89.0432 100.062 89.0249C100.116 89.0067 100.168 89 100.211 89V91C100.955 91 101.425 90.5103 101.668 90.0253L99.879 89.1309ZM100.211 89H90.25V91H100.211V89ZM128.898 82.0547L127.992 82.4761L127.994 82.4805L128.898 82.0547ZM128.945 64.4766L128.048 64.0358L128.046 64.0402L128.945 64.4766ZM134.453 58.3125L134.985 59.1596L134.989 59.1571L134.453 58.3125ZM151.164 58.3125L150.618 59.1506L150.625 59.1548L151.164 58.3125ZM156.508 64.4766L155.602 64.8998L155.605 64.9063L156.508 64.4766ZM148.633 86.6953L149.274 87.4628L149.275 87.4622L148.633 86.6953ZM151.633 81.5859L150.666 81.3321L150.664 81.3386L151.633 81.5859ZM148.539 59.9766L147.907 60.7517L147.911 60.755L148.539 59.9766ZM136.68 59.9766L137.311 60.7524L137.316 60.7482L136.68 59.9766ZM133.703 64.9922L134.671 65.2429L134.672 65.2412L133.703 64.9922ZM133.727 81.5859L132.759 81.8381L132.761 81.8462L133.727 81.5859ZM136.773 86.6953L136.132 87.4622L136.141 87.4696L136.773 86.6953ZM142.633 89.6797C139.614 89.6797 137.037 88.9497 134.861 87.5231L133.764 89.1957C136.307 90.8628 139.277 91.6797 142.633 91.6797V89.6797ZM134.861 87.5231C132.662 86.0817 130.978 84.1251 129.803 81.6289L127.994 82.4805C129.319 85.2968 131.244 87.5433 133.764 89.1957L134.861 87.5231ZM129.805 81.6333C128.638 79.1223 128.047 76.3229 128.047 73.2188H126.047C126.047 76.5834 126.69 79.6746 127.992 82.4761L129.805 81.6333ZM128.047 73.2188C128.047 70.1344 128.652 67.372 129.845 64.913L128.046 64.0402C126.707 66.7999 126.047 69.8656 126.047 73.2188H128.047ZM129.843 64.9173C131.045 62.4695 132.756 60.5577 134.985 59.1596L133.922 57.4654C131.369 59.0673 129.408 61.2649 128.048 64.0358L129.843 64.9173ZM134.989 59.1571C137.198 57.7564 139.811 57.0391 142.867 57.0391V55.0391C139.486 55.0391 136.49 55.8374 133.918 57.4679L134.989 59.1571ZM142.867 57.0391C145.907 57.0391 148.476 57.7561 150.618 59.1506L151.71 57.4744C149.195 55.8377 146.234 55.0391 142.867 55.0391V57.0391ZM150.625 59.1548C152.803 60.549 154.46 62.4557 155.602 64.8997L157.414 64.0534C156.118 61.2787 154.212 59.076 151.703 57.4702L150.625 59.1548ZM155.605 64.9063C156.768 67.3498 157.359 70.1142 157.359 73.2188H159.359C159.359 69.8545 158.717 66.7909 157.411 64.0468L155.605 64.9063ZM157.359 73.2188C157.359 76.3192 156.754 79.1155 155.558 81.6245L157.364 82.4848C158.699 79.6813 159.359 76.587 159.359 73.2188H157.359ZM155.558 81.6245C154.369 84.1212 152.669 86.079 150.454 87.5214L151.546 89.1973C154.081 87.546 156.022 85.3006 157.364 82.4848L155.558 81.6245ZM150.454 87.5214C148.262 88.9492 145.668 89.6797 142.633 89.6797V91.6797C146.004 91.6797 148.988 90.8633 151.546 89.1973L150.454 87.5214ZM142.727 89.4766C145.393 89.4766 147.617 88.8467 149.274 87.4628L147.992 85.9278C146.805 86.9189 145.092 87.4766 142.727 87.4766V89.4766ZM149.275 87.4622C150.905 86.0979 151.999 84.1955 152.602 81.8333L150.664 81.3386C150.142 83.3827 149.236 84.8865 147.991 85.9285L149.275 87.4622ZM152.6 81.8398C153.207 79.525 153.5 76.659 153.5 73.2656H151.5C151.5 76.5597 151.214 79.2406 150.666 81.3321L152.6 81.8398ZM153.5 73.2656C153.5 69.9014 153.199 67.056 152.574 64.7537L150.644 65.2776C151.207 67.3503 151.5 70.0049 151.5 73.2656H153.5ZM152.574 64.7537C151.938 62.4072 150.817 60.5286 149.167 59.1981L147.911 60.755C149.168 61.7683 150.094 63.249 150.644 65.2776L152.574 64.7537ZM149.171 59.2015C147.5 57.8397 145.273 57.2188 142.609 57.2188V59.2188C144.977 59.2188 146.703 59.7697 147.907 60.7516L149.171 59.2015ZM142.609 57.2188C139.932 57.2188 137.701 57.8386 136.044 59.2049L137.316 60.7482C138.502 59.7708 140.224 59.2188 142.609 59.2188V57.2188ZM136.049 59.2007C134.426 60.5207 133.338 62.3975 132.735 64.7431L134.672 65.2412C135.193 63.2119 136.09 61.7449 137.311 60.7524L136.049 59.2007ZM132.735 64.7415C132.144 67.0246 131.859 69.8743 131.859 73.2656H133.859C133.859 69.9694 134.138 67.3035 134.671 65.2429L132.735 64.7415ZM131.859 73.2656C131.859 76.6442 132.152 79.5091 132.759 81.8381L134.694 81.3338C134.145 79.2252 133.859 76.5433 133.859 73.2656H131.859ZM132.761 81.8462C133.396 84.2037 134.505 86.101 136.132 87.4622L137.415 85.9285C136.167 84.8833 135.244 83.3745 134.692 81.3257L132.761 81.8462ZM136.141 87.4696C137.825 88.8461 140.059 89.4766 142.727 89.4766V87.4766C140.363 87.4766 138.628 86.9195 137.406 85.921L136.141 87.4696ZM167.617 89.5781L166.723 90.0253L166.732 90.0448L166.743 90.0638L167.617 89.5781ZM168.18 87.9375L168.124 86.939L168.1 86.9404L168.075 86.943L168.18 87.9375ZM171.625 87.375L171.941 88.3237L171.951 88.3204L171.625 87.375ZM172.984 85.7344L171.984 85.7335V85.7344H172.984ZM173.008 59.0625L174.008 59.0634L174.009 58.0625H173.008V59.0625ZM164.547 61.6406L165.502 61.9384L165.502 61.9359L164.547 61.6406ZM163.562 66.5859L164.557 66.6906L164.558 66.6774L164.559 66.6641L163.562 66.5859ZM161.898 67.1484L161.413 68.0226L161.441 68.0383L161.47 68.0522L161.898 67.1484ZM161.5 66.5625L162.498 66.629L162.498 66.6184L162.499 66.6078L161.5 66.5625ZM188.992 60.1406L187.995 60.2094L187.995 60.2099L188.992 60.1406ZM189.32 66.5625H190.32V66.5471L190.32 66.5317L189.32 66.5625ZM188.898 67.1484L189.346 68.0429L189.365 68.0331L189.384 68.0226L188.898 67.1484ZM187.258 66.5859L186.261 66.6634L186.262 66.677L186.263 66.6906L187.258 66.5859ZM186.273 61.6172L185.316 61.907L185.319 61.915L186.273 61.6172ZM177.859 59.0625V58.0625H176.86L176.859 59.0616L177.859 59.0625ZM177.836 85.6641L176.836 85.6632V85.6641H177.836ZM180.227 87.7031L180.054 88.6882L180.066 88.6903L180.078 88.6921L180.227 87.7031ZM182.57 87.9375L182.661 86.9416L182.649 86.9405L182.637 86.9397L182.57 87.9375ZM183.25 88.1484L182.543 88.8555L182.57 88.8827L182.599 88.9077L183.25 88.1484ZM183.18 89.5781L182.306 89.0925L182.295 89.1115L182.285 89.1309L183.18 89.5781ZM168.203 89C168.246 89 168.295 89.0068 168.346 89.0232C168.396 89.0396 168.436 89.062 168.465 89.083C168.52 89.1225 168.521 89.1457 168.491 89.0925L166.743 90.0638C167.001 90.5283 167.474 91 168.203 91V89ZM168.512 89.1309C168.418 88.9433 168.406 88.8401 168.406 88.8047H166.406C166.406 89.238 166.535 89.6505 166.723 90.0253L168.512 89.1309ZM168.406 88.8047C168.406 88.7723 168.408 88.7488 168.41 88.7331C168.412 88.7174 168.413 88.7113 168.413 88.7131C168.412 88.7172 168.4 88.7573 168.36 88.8093L166.781 87.5814C166.482 87.9652 166.406 88.4212 166.406 88.8047H168.406ZM168.36 88.8093C168.287 88.9022 168.213 88.9384 168.194 88.9464C168.179 88.9527 168.202 88.9407 168.284 88.932L168.075 86.943C167.681 86.9845 167.14 87.1192 166.781 87.5814L168.36 88.8093ZM168.235 88.936C169.691 88.8551 170.936 88.6589 171.941 88.3237L171.309 86.4263C170.533 86.6848 169.481 86.8636 168.124 86.939L168.235 88.936ZM171.951 88.3204C172.519 88.1246 173.037 87.8243 173.415 87.3685C173.805 86.8974 173.984 86.3331 173.984 85.7344H171.984C171.984 85.9169 171.937 86.0167 171.875 86.0925C171.799 86.1835 171.637 86.3129 171.299 86.4296L171.951 88.3204ZM173.984 85.7353L174.008 59.0634L172.008 59.0616L171.984 85.7335L173.984 85.7353ZM173.008 58.0625H167.055V60.0625H173.008V58.0625ZM167.055 58.0625C166.199 58.0625 165.451 58.3976 164.855 59.0098C164.286 59.5952 163.882 60.4043 163.591 61.3453L165.502 61.9359C165.743 61.1582 166.023 60.6782 166.289 60.4043C166.53 60.1571 166.769 60.0625 167.055 60.0625V58.0625ZM163.592 61.3428C163.041 63.1092 162.697 64.8314 162.566 66.5077L164.559 66.6641C164.678 65.1529 164.99 63.5783 165.502 61.9384L163.592 61.3428ZM162.568 66.4813C162.559 66.5638 162.547 66.5862 162.554 66.5713C162.562 66.5526 162.598 66.4783 162.691 66.406L163.919 67.9847C164.381 67.6252 164.516 67.0846 164.557 66.6906L162.568 66.4813ZM162.691 66.406C162.743 66.3655 162.783 66.3539 162.787 66.3527C162.789 66.3523 162.783 66.354 162.767 66.3559C162.751 66.3577 162.728 66.3594 162.695 66.3594V68.3594C163.079 68.3594 163.535 68.2832 163.919 67.9847L162.691 66.406ZM162.695 66.3594C162.656 66.3594 162.54 66.3458 162.327 66.2447L161.47 68.0522C161.851 68.2324 162.266 68.3594 162.695 68.3594V66.3594ZM162.384 66.2743C162.333 66.2459 162.367 66.2528 162.415 66.3225C162.44 66.3595 162.465 66.4086 162.481 66.4678C162.497 66.5272 162.501 66.5828 162.498 66.629L160.502 66.496C160.451 67.2596 160.94 67.7597 161.413 68.0226L162.384 66.2743ZM162.499 66.6078C162.647 63.3372 162.789 60.8976 162.924 59.2805C162.992 58.468 163.057 57.8846 163.116 57.5139C163.147 57.3216 163.17 57.2257 163.18 57.194C163.187 57.1709 163.173 57.226 163.124 57.3063C163.118 57.3149 162.875 57.7422 162.32 57.7422V55.7422C161.735 55.7422 161.459 56.195 161.423 56.2548C161.341 56.3863 161.296 56.518 161.271 56.5972C161.217 56.7702 161.176 56.9811 161.141 57.1981C161.069 57.6456 161 58.2899 160.931 59.114C160.793 60.7704 160.65 63.2409 160.501 66.5172L162.499 66.6078ZM162.32 57.7422H188.523V55.7422H162.32V57.7422ZM188.523 57.7422C188.209 57.7422 187.99 57.5952 187.881 57.4964C187.778 57.4027 187.725 57.3114 187.706 57.2784C187.669 57.2107 187.664 57.1746 187.677 57.2205C187.698 57.2967 187.73 57.4562 187.767 57.7284C187.84 58.2599 187.917 59.0818 187.995 60.2094L189.99 60.0718C189.911 58.9338 189.831 58.0565 189.748 57.4552C189.708 57.1609 189.662 56.8957 189.605 56.6887C189.578 56.5929 189.534 56.4507 189.458 56.3122C189.42 56.2438 189.347 56.126 189.224 56.0145C189.096 55.898 188.857 55.7422 188.523 55.7422V57.7422ZM187.995 60.2099C188.15 62.4484 188.259 64.5762 188.321 66.5933L190.32 66.5317C190.257 64.4863 190.147 62.3328 189.99 60.0713L187.995 60.2099ZM188.32 66.5625C188.32 66.5194 188.327 66.4703 188.344 66.4199C188.36 66.3698 188.382 66.3296 188.403 66.3005C188.443 66.2456 188.466 66.2447 188.413 66.2743L189.384 68.0226C189.849 67.7645 190.32 67.2913 190.32 66.5625H188.32ZM188.451 66.254C188.264 66.3478 188.16 66.3594 188.125 66.3594V68.3594C188.558 68.3594 188.971 68.2303 189.346 68.0429L188.451 66.254ZM188.125 66.3594C188.093 66.3594 188.069 66.3577 188.053 66.3559C188.038 66.354 188.032 66.3523 188.033 66.3527C188.038 66.3539 188.078 66.3655 188.13 66.406L186.902 67.9847C187.286 68.2832 187.741 68.3594 188.125 68.3594V66.3594ZM188.13 66.406C188.223 66.4783 188.259 66.5526 188.267 66.5713C188.273 66.5862 188.261 66.5638 188.252 66.4813L186.263 66.6906C186.305 67.0846 186.44 67.6252 186.902 67.9847L188.13 66.406ZM188.255 66.5085C188.123 64.817 187.779 63.0868 187.228 61.3194L185.319 61.915C185.83 63.5539 186.142 65.1362 186.261 66.6634L188.255 66.5085ZM187.231 61.3274C186.948 60.3928 186.55 59.5874 185.983 59.004C185.389 58.3936 184.642 58.0625 183.789 58.0625V60.0625C184.077 60.0625 184.314 60.1572 184.549 60.3983C184.81 60.6666 185.084 61.1384 185.316 61.907L187.231 61.3274ZM183.789 58.0625H177.859V60.0625H183.789V58.0625ZM176.859 59.0616L176.836 85.6632L178.836 85.6649L178.859 59.0634L176.859 59.0616ZM176.836 85.6641C176.836 86.5946 177.223 87.3962 178.02 87.9106L179.105 86.23C178.933 86.1194 178.836 85.9835 178.836 85.6641H176.836ZM178.02 87.9106C178.628 88.3026 179.311 88.5581 180.054 88.6882L180.399 86.7181C179.892 86.6294 179.466 86.463 179.105 86.23L178.02 87.9106ZM180.078 88.6921C180.74 88.7913 181.551 88.8717 182.504 88.9353L182.637 86.9397C181.715 86.8783 180.963 86.8024 180.375 86.7142L180.078 88.6921ZM182.48 88.9334C182.542 88.9391 182.592 88.9459 182.631 88.9528C182.67 88.9597 182.692 88.9658 182.702 88.9687C182.712 88.9719 182.7 88.9692 182.674 88.9555C182.649 88.9419 182.599 88.9116 182.543 88.8555L183.957 87.4413C183.743 87.2267 183.487 87.1185 183.294 87.0586C183.091 86.9956 182.874 86.961 182.661 86.9416L182.48 88.9334ZM182.599 88.9077C182.511 88.8325 182.462 88.7556 182.436 88.707C182.411 88.6593 182.403 88.6277 182.403 88.6253C182.402 88.6219 182.405 88.6342 182.409 88.6671C182.412 88.6992 182.414 88.7444 182.414 88.8047H184.414C184.414 88.589 184.398 88.3588 184.343 88.1403C184.292 87.9353 184.179 87.6278 183.901 87.3892L182.599 88.9077ZM182.414 88.8047C182.414 88.8175 182.409 88.907 182.306 89.0925L184.054 90.0638C184.263 89.6868 184.414 89.2606 184.414 88.8047H182.414ZM182.285 89.1309C182.262 89.1779 182.268 89.1436 182.334 89.0945C182.368 89.0687 182.413 89.0432 182.468 89.0249C182.523 89.0067 182.574 89 182.617 89V91C183.361 91 183.832 90.5103 184.074 90.0253L182.285 89.1309ZM182.617 89H168.203V91H182.617V89Z" fill="#3D556A"/>
<path d="M0.628906 82C0.511719 82 0.414062 81.9297 0.335938 81.7891C0.265625 81.6484 0.230469 81.5195 0.230469 81.4023C0.230469 81.2695 0.257812 81.168 0.3125 81.0977C0.367188 81.0273 0.46875 80.9844 0.617188 80.9688C1.08594 80.9297 1.48438 80.8555 1.8125 80.7461C2.14844 80.6289 2.31641 80.4531 2.31641 80.2188L2.32812 67.5391C2.32812 67.2344 2.23828 67.0039 2.05859 66.8477C1.87891 66.6914 1.67969 66.5898 1.46094 66.543C1.25 66.4961 0.945312 66.4492 0.546875 66.4023C0.375 66.3867 0.261719 66.3555 0.207031 66.3086C0.152344 66.2539 0.125 66.1406 0.125 65.9688C0.125 65.8516 0.160156 65.7227 0.230469 65.582C0.308594 65.4414 0.40625 65.3711 0.523438 65.3711H3.13672C3.63672 65.3711 4.30859 65.3477 5.15234 65.3008C6.01172 65.2539 6.71484 65.2305 7.26172 65.2305C8.24609 65.2305 9.15625 65.3984 9.99219 65.7344C10.8359 66.0625 11.5195 66.5977 12.043 67.3398C12.5664 68.0742 12.8281 69.0156 12.8281 70.1641C12.8281 71.1953 12.5703 72.1172 12.0547 72.9297C11.5391 73.7344 10.8203 74.3633 9.89844 74.8164C8.97656 75.2695 7.9375 75.4961 6.78125 75.4961H4.74219V79.832C4.74219 80.1367 4.86328 80.3711 5.10547 80.5352C5.35547 80.6914 5.63672 80.7969 5.94922 80.8516C6.26172 80.8984 6.64844 80.9375 7.10938 80.9688C7.28125 80.9844 7.39453 81.0195 7.44922 81.0742C7.50391 81.1211 7.53125 81.2305 7.53125 81.4023C7.53125 81.5195 7.49219 81.6484 7.41406 81.7891C7.34375 81.9297 7.25 82 7.13281 82H0.628906ZM6.74609 74.4883C7.12109 74.4883 7.57812 74.3555 8.11719 74.0898C8.65625 73.8164 9.12891 73.375 9.53516 72.7656C9.94922 72.1484 10.1562 71.3633 10.1562 70.4102C10.1562 68.9258 9.79297 67.8672 9.06641 67.2344C8.34766 66.5938 7.44531 66.2734 6.35938 66.2734H4.75391L4.74219 74.4883H6.74609ZM29.7734 80.9688C29.9453 80.9844 30.0586 81.0195 30.1133 81.0742C30.168 81.1211 30.1953 81.2305 30.1953 81.4023C30.1953 81.5195 30.1562 81.6484 30.0781 81.7891C30.0078 81.9297 29.9141 82 29.7969 82H23.9258C23.8086 82 23.7109 81.9297 23.6328 81.7891C23.5625 81.6484 23.5273 81.5195 23.5273 81.4023C23.5273 81.2695 23.5547 81.168 23.6094 81.0977C23.6641 81.0273 23.7656 80.9844 23.9141 80.9688L24.3945 80.9453C24.793 80.9375 25.0781 80.9141 25.25 80.875C25.4297 80.8359 25.5195 80.75 25.5195 80.6172C25.5195 80.5625 25.5078 80.5078 25.4844 80.4531L24.0664 76.2109H18.4414L17.0117 80.4531C16.9961 80.4922 16.9883 80.5391 16.9883 80.5938C16.9883 80.7344 17.0742 80.8242 17.2461 80.8633C17.418 80.9023 17.7109 80.9297 18.125 80.9453C18.2422 80.9453 18.4336 80.9531 18.6992 80.9688C18.8477 80.9844 18.9492 81.0273 19.0039 81.0977C19.0586 81.168 19.0859 81.2695 19.0859 81.4023C19.0859 81.5195 19.0469 81.6484 18.9688 81.7891C18.8984 81.9297 18.8047 82 18.6875 82H13.7305C13.6055 82 13.5078 81.9414 13.4375 81.8242C13.3672 81.707 13.332 81.5664 13.332 81.4023C13.332 81.2305 13.3594 81.1211 13.4141 81.0742C13.4688 81.0195 13.582 80.9844 13.7539 80.9688C13.8242 80.9609 13.9297 80.957 14.0703 80.957C14.3203 80.9492 14.5273 80.9297 14.6914 80.8984C14.8555 80.8672 15.0156 80.7891 15.1719 80.6641C15.3281 80.5312 15.4531 80.332 15.5469 80.0664L20.9141 65.1133H22.7891L28.0039 80.0664C28.0977 80.332 28.2188 80.5273 28.3672 80.6523C28.5234 80.7773 28.6797 80.8594 28.8359 80.8984C29 80.9297 29.207 80.9492 29.457 80.957C29.6055 80.957 29.7109 80.9609 29.7734 80.9688ZM21.3711 68.0898L18.8047 75.2031H23.7383L21.3711 68.0898ZM38.5859 82.3516C37.3906 82.3516 36.1914 82.0625 34.9883 81.4844C33.7852 80.9062 32.7734 79.9727 31.9531 78.6836C31.1406 77.3945 30.7344 75.7422 30.7344 73.7266C30.7344 71.7188 31.1523 70.0625 31.9883 68.7578C32.832 67.4531 33.8789 66.5039 35.1289 65.9102C36.3789 65.3164 37.6445 65.0195 38.9258 65.0195C39.8477 65.0195 40.6562 65.0742 41.3516 65.1836C42.0469 65.293 42.6016 65.418 43.0156 65.5586C43.4375 65.6992 43.8633 65.8633 44.293 66.0508L44.5508 69.6836C44.5664 69.8086 44.5234 69.918 44.4219 70.0117C44.3281 70.1055 44.2305 70.1523 44.1289 70.1523L44 70.1641C43.7422 70.1641 43.5977 70.0508 43.5664 69.8242C43.2617 68.7461 42.7227 67.8672 41.9492 67.1875C41.1758 66.5 40.1602 66.1523 38.9023 66.1445C38.1445 66.1367 37.3711 66.3398 36.582 66.7539C35.793 67.1602 35.1055 67.9297 34.5195 69.0625C33.9414 70.1875 33.6523 71.7422 33.6523 73.7266C33.6523 75.4922 33.9492 76.9375 34.543 78.0625C35.1445 79.1875 35.8633 80 36.6992 80.5C37.543 80.9922 38.3516 81.2383 39.125 81.2383C40.2422 81.2383 41.0508 81.0859 41.5508 80.7812C42.0586 80.4766 42.3125 80.1055 42.3125 79.668V76.6562C42.3125 76.3438 42.207 76.1094 41.9961 75.9531C41.793 75.7891 41.5508 75.6836 41.2695 75.6367C40.9961 75.5898 40.6445 75.5508 40.2148 75.5195C40.043 75.5039 39.9297 75.4727 39.875 75.4258C39.8203 75.3711 39.793 75.2578 39.793 75.0859C39.793 74.9688 39.8281 74.8398 39.8984 74.6992C39.9766 74.5586 40.0742 74.4883 40.1914 74.4883H46.2266C46.3438 74.4883 46.4375 74.5586 46.5078 74.6992C46.5859 74.8398 46.625 74.9688 46.625 75.0859C46.625 75.2188 46.5938 75.3242 46.5312 75.4023C46.4766 75.4727 46.3789 75.5117 46.2383 75.5195C45.8086 75.5586 45.4414 75.6367 45.1367 75.7539C44.8398 75.8633 44.6914 76.0352 44.6914 76.2695L44.7734 80.5586C44.6172 80.7695 44.2773 81.0156 43.7539 81.2969C43.2383 81.5781 42.5352 81.8242 41.6445 82.0352C40.7617 82.2461 39.7422 82.3516 38.5859 82.3516ZM48.3945 81.4023C48.3945 81.2695 48.4219 81.168 48.4766 81.0977C48.5312 81.0273 48.6328 80.9844 48.7812 80.9688C49.25 80.9297 49.6523 80.8555 49.9883 80.7461C50.3242 80.6289 50.4922 80.4531 50.4922 80.2188V67.5391C50.4922 67.2344 50.4023 67.0039 50.2227 66.8477C50.043 66.6914 49.8438 66.5898 49.625 66.543C49.4141 66.4961 49.1094 66.4492 48.7109 66.4023C48.5391 66.3867 48.4258 66.3555 48.3711 66.3086C48.3164 66.2539 48.2891 66.1406 48.2891 65.9688C48.2891 65.8516 48.3242 65.7227 48.3945 65.582C48.4727 65.4414 48.5703 65.3711 48.6875 65.3711L60.1719 65.3594L60.582 69.168C60.5898 69.293 60.5469 69.3906 60.4531 69.4609C60.3594 69.5312 60.2578 69.5664 60.1484 69.5664C59.9844 69.5664 59.8398 69.543 59.7148 69.4961C59.5898 69.4414 59.4844 69.3359 59.3984 69.1797L58.9883 68.3945C58.7383 67.8945 58.5352 67.5234 58.3789 67.2812C58.2227 67.0391 58.0352 66.8516 57.8164 66.7188C57.5977 66.5859 57.3203 66.5195 56.9844 66.5195L53 66.5312V72.8828L55.7422 72.8711C55.9297 72.8477 56.1094 72.7109 56.2812 72.4609C56.4531 72.2109 56.5977 71.9297 56.7148 71.6172C56.832 71.2969 56.9023 71.0469 56.9258 70.8672C56.957 70.6172 57.1367 70.4922 57.4648 70.4922C57.5742 70.4922 57.6797 70.5273 57.7812 70.5977C57.8906 70.668 57.9453 70.7656 57.9453 70.8906V76.082C57.9453 76.207 57.8906 76.3047 57.7812 76.375C57.6797 76.4453 57.5742 76.4805 57.4648 76.4805C57.3164 76.4805 57.1875 76.4531 57.0781 76.3984C56.9688 76.3359 56.9062 76.2344 56.8906 76.0938C56.875 75.8984 56.8086 75.6328 56.6914 75.2969C56.5742 74.9531 56.4258 74.6523 56.2461 74.3945C56.0664 74.1289 55.875 73.9961 55.6719 73.9961L53 74.0078V79.6914C53 80.3789 53.3477 80.7539 54.043 80.8164L57.3828 80.8047C58.125 80.8047 58.75 80.5586 59.2578 80.0664C59.7656 79.5664 60.1562 78.75 60.4297 77.6172C60.4609 77.4844 60.5586 77.3867 60.7227 77.3242C60.8945 77.2617 61.0625 77.2305 61.2266 77.2305C61.3828 77.2305 61.5117 77.2656 61.6133 77.3359C61.7227 77.3984 61.7852 77.4961 61.8008 77.6289L61.2148 81.9883L48.793 82C48.6758 82 48.5781 81.9297 48.5 81.7891C48.4297 81.6484 48.3945 81.5195 48.3945 81.4023Z" fill="#3D556A"/>
<path d="M220.629 82C220.512 82 220.414 81.9297 220.336 81.7891C220.266 81.6484 220.23 81.5195 220.23 81.4023C220.23 81.2695 220.258 81.168 220.312 81.0977C220.367 81.0273 220.469 80.9844 220.617 80.9688C221.188 80.9297 221.672 80.8555 222.07 80.7461C222.469 80.6289 222.668 80.4531 222.668 80.2188L222.68 67.5391C222.68 67.2266 222.57 66.9922 222.352 66.8359C222.133 66.6797 221.883 66.5781 221.602 66.5312C221.32 66.4766 220.969 66.4336 220.547 66.4023C220.375 66.3867 220.262 66.3555 220.207 66.3086C220.152 66.2539 220.125 66.1406 220.125 65.9688C220.125 65.8516 220.16 65.7227 220.23 65.582C220.309 65.4414 220.406 65.3711 220.523 65.3711L232.523 65.3828L232.957 69.4609C232.957 69.5859 232.902 69.6836 232.793 69.7539C232.691 69.8242 232.586 69.8594 232.477 69.8594C232.172 69.8594 232.004 69.7305 231.973 69.4727C231.949 69.2773 231.812 68.9336 231.562 68.4414C231.312 67.9492 231.008 67.5078 230.648 67.1172C230.289 66.7266 229.918 66.5312 229.535 66.5312H225.094V73.3164H228.188C228.375 73.293 228.547 73.1523 228.703 72.8945C228.867 72.6367 229 72.3516 229.102 72.0391C229.211 71.7188 229.277 71.4609 229.301 71.2656C229.316 71.125 229.383 71.0273 229.5 70.9727C229.625 70.9102 229.762 70.8789 229.91 70.8789C230.02 70.8789 230.125 70.9141 230.227 70.9844C230.336 71.0547 230.391 71.1523 230.391 71.2773V76.4688C230.391 76.5938 230.336 76.6914 230.227 76.7617C230.125 76.832 230.02 76.8672 229.91 76.8672C229.762 76.8672 229.625 76.8398 229.5 76.7852C229.383 76.7227 229.316 76.6211 229.301 76.4805C229.277 76.2695 229.207 75.9922 229.09 75.6484C228.98 75.3047 228.84 75 228.668 74.7344C228.504 74.4609 228.32 74.3242 228.117 74.3242H225.094V79.6914C225.094 80.1445 225.367 80.4727 225.914 80.6758C226.461 80.8711 227.055 80.9688 227.695 80.9688C227.836 80.9688 227.941 81 228.012 81.0625C228.082 81.125 228.117 81.2383 228.117 81.4023C228.117 81.5195 228.078 81.6484 228 81.7891C227.93 81.9297 227.836 82 227.719 82H220.629ZM242.285 82.3398C240.691 82.3398 239.305 81.9531 238.125 81.1797C236.945 80.4062 236.043 79.3555 235.418 78.0273C234.801 76.6992 234.492 75.2266 234.492 73.6094C234.492 72 234.809 70.543 235.441 69.2383C236.082 67.9336 237 66.9062 238.195 66.1562C239.391 65.3984 240.793 65.0195 242.402 65.0195C244.004 65.0195 245.387 65.3984 246.551 66.1562C247.723 66.9062 248.613 67.9336 249.223 69.2383C249.84 70.5352 250.148 71.9922 250.148 73.6094C250.148 75.2266 249.832 76.6992 249.199 78.0273C248.566 79.3555 247.656 80.4062 246.469 81.1797C245.281 81.9531 243.887 82.3398 242.285 82.3398ZM242.332 81.2383C243.59 81.2383 244.574 80.9414 245.285 80.3477C246.004 79.7461 246.504 78.8945 246.785 77.793C247.074 76.6914 247.219 75.3047 247.219 73.6328C247.219 71.9766 247.07 70.6016 246.773 69.5078C246.477 68.4141 245.965 67.5742 245.238 66.9883C244.52 66.4023 243.531 66.1094 242.273 66.1094C241.008 66.1094 240.02 66.4023 239.309 66.9883C238.598 67.5664 238.102 68.4023 237.82 69.4961C237.539 70.582 237.398 71.9609 237.398 73.6328C237.398 75.2969 237.543 76.6836 237.832 77.793C238.129 78.8945 238.637 79.7461 239.355 80.3477C240.082 80.9414 241.074 81.2383 242.332 81.2383ZM266.414 75.9531C266.406 78.0469 265.879 79.6367 264.832 80.7227C263.785 81.8008 262.309 82.3398 260.402 82.3398C259.02 82.3398 257.863 82.0742 256.934 81.543C256.012 81.0117 255.324 80.2695 254.871 79.3164C254.418 78.3555 254.191 77.2344 254.191 75.9531L254.203 67.5391C254.203 67.2266 254.121 66.9922 253.957 66.8359C253.793 66.6719 253.598 66.5664 253.371 66.5195C253.152 66.4727 252.875 66.4336 252.539 66.4023C252.367 66.3867 252.254 66.3555 252.199 66.3086C252.145 66.2539 252.117 66.1406 252.117 65.9688C252.117 65.8516 252.152 65.7227 252.223 65.582C252.301 65.4414 252.398 65.3711 252.516 65.3711H258.469C258.586 65.3711 258.68 65.4414 258.75 65.582C258.828 65.7227 258.867 65.8516 258.867 65.9688C258.867 66.1016 258.836 66.207 258.773 66.2852C258.719 66.3555 258.621 66.3945 258.48 66.4023C257.98 66.4414 257.555 66.5195 257.203 66.6367C256.859 66.7461 256.688 66.918 256.688 67.1523L256.676 75.8594C256.676 77.6875 256.984 79.043 257.602 79.9258C258.219 80.8008 259.168 81.2383 260.449 81.2383C261.637 81.2383 262.57 81.0234 263.25 80.5938C263.938 80.1562 264.418 79.5547 264.691 78.7891C264.973 78.0234 265.113 77.0859 265.113 75.9766V67.4219C265.113 67.0859 264.906 66.8477 264.492 66.707C264.086 66.5664 263.605 66.4648 263.051 66.4023C262.879 66.3867 262.766 66.3555 262.711 66.3086C262.656 66.2539 262.629 66.1406 262.629 65.9688C262.629 65.8516 262.664 65.7227 262.734 65.582C262.812 65.4414 262.91 65.3711 263.027 65.3711H268.477C268.594 65.3711 268.688 65.4414 268.758 65.582C268.836 65.7227 268.875 65.8516 268.875 65.9688C268.875 66.1016 268.844 66.207 268.781 66.2852C268.727 66.3555 268.629 66.3945 268.488 66.4023C267.855 66.4336 267.355 66.5508 266.988 66.7539C266.621 66.9492 266.438 67.2266 266.438 67.5859L266.414 75.9531ZM270.539 82C270.422 82 270.324 81.9297 270.246 81.7891C270.176 81.6484 270.141 81.5195 270.141 81.4023C270.141 81.2695 270.168 81.168 270.223 81.0977C270.277 81.0273 270.379 80.9844 270.527 80.9688C271.738 80.875 272.344 80.5469 272.344 79.9844V67.5391C272.344 67.2344 272.246 67.0039 272.051 66.8477C271.855 66.6914 271.648 66.5898 271.43 66.543C271.211 66.4961 270.887 66.4492 270.457 66.4023C270.285 66.3867 270.172 66.3555 270.117 66.3086C270.062 66.2539 270.035 66.1406 270.035 65.9688C270.035 65.8516 270.07 65.7227 270.141 65.582C270.219 65.4414 270.316 65.3711 270.434 65.3711H274.395L283.5 78.332H283.641V67.5391C283.641 67.2344 283.523 67.0039 283.289 66.8477C283.062 66.6914 282.836 66.5938 282.609 66.5547C282.383 66.5078 282.023 66.457 281.531 66.4023C281.359 66.3867 281.246 66.3555 281.191 66.3086C281.137 66.2539 281.109 66.1406 281.109 65.9688C281.109 65.8516 281.145 65.7227 281.215 65.582C281.293 65.4414 281.391 65.3711 281.508 65.3711H286.84C286.957 65.3711 287.051 65.4414 287.121 65.582C287.199 65.7227 287.238 65.8516 287.238 65.9688C287.238 66.1016 287.211 66.2031 287.156 66.2734C287.102 66.3438 287 66.3867 286.852 66.4023C286.789 66.4102 286.559 66.4336 286.16 66.4727C285.762 66.5117 285.434 66.625 285.176 66.8125C284.926 66.9922 284.801 67.2344 284.801 67.5391V80.6758C284.801 80.8164 284.812 80.9648 284.836 81.1211L284.871 81.5312C284.895 81.8281 284.832 82.0391 284.684 82.1641C284.543 82.2891 284.371 82.3516 284.168 82.3516C284.051 82.3516 283.93 82.3242 283.805 82.2695C283.688 82.2227 283.598 82.1641 283.535 82.0938L273.703 68.4766H273.504V79.832C273.504 80.1367 273.609 80.3672 273.82 80.5234C274.031 80.6797 274.25 80.7812 274.477 80.8281C274.703 80.8672 275.043 80.9141 275.496 80.9688C275.668 80.9844 275.781 81.0195 275.836 81.0742C275.891 81.1211 275.918 81.2305 275.918 81.4023C275.918 81.5195 275.879 81.6484 275.801 81.7891C275.73 81.9297 275.637 82 275.52 82H270.539ZM289.477 82C289.359 82 289.262 81.9297 289.184 81.7891C289.113 81.6484 289.078 81.5195 289.078 81.4023C289.078 81.2695 289.105 81.168 289.16 81.0977C289.215 81.0273 289.316 80.9844 289.465 80.9688C289.934 80.9297 290.332 80.8555 290.66 80.7461C290.996 80.6289 291.164 80.4531 291.164 80.2188V67.5391C291.164 67.2344 291.074 67.0039 290.895 66.8477C290.715 66.6914 290.516 66.5898 290.297 66.543C290.086 66.4961 289.781 66.4492 289.383 66.4023C289.211 66.3867 289.098 66.3555 289.043 66.3086C288.988 66.2539 288.961 66.1406 288.961 65.9688C288.961 65.8516 288.996 65.7227 289.066 65.582C289.145 65.4414 289.242 65.3711 289.359 65.3711H296.344C298.359 65.3789 300.004 65.7539 301.277 66.4961C302.559 67.2305 303.48 68.1953 304.043 69.3906C304.613 70.5859 304.898 71.9062 304.898 73.3516C304.898 75.2656 304.5 76.875 303.703 78.1797C302.906 79.4766 301.898 80.4375 300.68 81.0625C299.461 81.6875 298.219 82 296.953 82H289.477ZM293.648 80.0312C293.648 80.2422 293.824 80.4258 294.176 80.582C294.535 80.7383 295.172 80.8164 296.086 80.8164C297.242 80.8164 298.242 80.6484 299.086 80.3125C299.93 79.9688 300.629 79.2539 301.184 78.168C301.738 77.082 302.016 75.4922 302.016 73.3984C302.016 70.7891 301.434 68.9883 300.27 67.9961C299.105 67.0039 297.672 66.5078 295.969 66.5078H293.66L293.648 80.0312Z" fill="#3D556A"/>
<defs>
<filter id="filter0_i" x="64.6377" y="0.344086" width="149.476" height="145.523" filterUnits="userSpaceOnUse" color-interpolation-filters="sRGB">
<feFlood flood-opacity="0" result="BackgroundImageFix"/>
<feBlend mode="normal" in="SourceGraphic" in2="BackgroundImageFix" result="shape"/>
<feColorMatrix in="SourceAlpha" type="matrix" values="0 0 0 0 0 0 0 0 0 0 0 0 0 0 0 0 0 0 127 0" result="hardAlpha"/>
<feMorphology radius="12" operator="erode" in="SourceAlpha" result="effect1_innerShadow"/>
<feOffset dx="-5"/>
<feGaussianBlur stdDeviation="5"/>
<feComposite in2="hardAlpha" operator="arithmetic" k2="-1" k3="1"/>
<feColorMatrix type="matrix" values="0 0 0 0 0 0 0 0 0 0 0 0 0 0 0 0 0 0 0.2 0"/>
<feBlend mode="normal" in2="shape" result="effect1_innerShadow"/>
</filter>
<filter id="filter1_i" x="299.496" y="234.514" width="13.069" height="13.1568" filterUnits="userSpaceOnUse" color-interpolation-filters="sRGB">
<feFlood flood-opacity="0" result="BackgroundImageFix"/>
<feBlend mode="normal" in="SourceGraphic" in2="BackgroundImageFix" result="shape"/>
<feColorMatrix in="SourceAlpha" type="matrix" values="0 0 0 0 0 0 0 0 0 0 0 0 0 0 0 0 0 0 127 0" result="hardAlpha"/>
<feMorphology radius="1" operator="erode" in="SourceAlpha" result="effect1_innerShadow"/>
<feOffset dx="-1" dy="1"/>
<feGaussianBlur stdDeviation="1.5"/>
<feComposite in2="hardAlpha" operator="arithmetic" k2="-1" k3="1"/>
<feColorMatrix type="matrix" values="0 0 0 0 0 0 0 0 0 0 0 0 0 0 0 0 0 0 0.5 0"/>
<feBlend mode="normal" in2="shape" result="effect1_innerShadow"/>
</filter>
</defs>
</svg>
