<svg width="419" height="238" viewBox="0 0 419 238" fill="none" xmlns="http://www.w3.org/2000/svg">
<path d="M60.4999 62C128.5 6.05629 293.647 -9.38743 373.324 6.05628C453 21.5 413.5 176.5 357.5 206C301.5 235.5 50.9999 247 19.468 229C-12.0638 211 -7.5 117.944 60.4999 62Z" fill="#F4FAFF"/>
<g filter="url(#filter0_d)">
<path d="M277 29H357V139H277V29Z" fill="white"/>
<path d="M277.5 29.5H356.5V138.5H277.5V29.5Z" stroke="#E6ECEF"/>
</g>
<rect x="293" y="43" width="48" height="5" fill="#E6ECEF"/>
<rect x="286" y="64" width="61" height="9" fill="#E6ECEF"/>
<rect x="286" y="84" width="61" height="20" fill="#E6ECEF"/>
<rect x="286" y="112" width="61" height="20" fill="#E6ECEF"/>
<g filter="url(#filter1_d)">
<rect x="91" y="104" width="80" height="110" fill="white"/>
<rect x="91.5" y="104.5" width="79" height="109" stroke="#E6ECEF"/>
</g>
<rect x="107" y="120" width="48" height="7" fill="#E6ECEF"/>
<line x1="107" y1="149.5" x2="157" y2="149.5" stroke="#E6ECEF" stroke-width="3"/>
<line x1="107" y1="162.5" x2="157" y2="162.5" stroke="#E6ECEF" stroke-width="3"/>
<line x1="107" y1="176.5" x2="157" y2="176.5" stroke="#E6ECEF" stroke-width="3"/>
<line x1="107" y1="189.5" x2="157" y2="189.5" stroke="#E6ECEF" stroke-width="3"/>
<line x1="107" y1="202.5" x2="157" y2="202.5" stroke="#E6ECEF" stroke-width="3"/>
<defs>
<filter id="filter0_d" x="274" y="25" width="90" height="120" filterUnits="userSpaceOnUse" color-interpolation-filters="sRGB">
<feFlood flood-opacity="0" result="BackgroundImageFix"/>
<feColorMatrix in="SourceAlpha" type="matrix" values="0 0 0 0 0 0 0 0 0 0 0 0 0 0 0 0 0 0 127 0"/>
<feMorphology radius="3" operator="dilate" in="SourceAlpha" result="effect1_dropShadow"/>
<feOffset dx="2" dy="1"/>
<feGaussianBlur stdDeviation="1"/>
<feColorMatrix type="matrix" values="0 0 0 0 0.9625 0 0 0 0 0.9625 0 0 0 0 0.9625 0 0 0 1 0"/>
<feBlend mode="normal" in2="BackgroundImageFix" result="effect1_dropShadow"/>
<feBlend mode="normal" in="SourceGraphic" in2="effect1_dropShadow" result="shape"/>
</filter>
<filter id="filter1_d" x="88" y="100" width="90" height="120" filterUnits="userSpaceOnUse" color-interpolation-filters="sRGB">
<feFlood flood-opacity="0" result="BackgroundImageFix"/>
<feColorMatrix in="SourceAlpha" type="matrix" values="0 0 0 0 0 0 0 0 0 0 0 0 0 0 0 0 0 0 127 0"/>
<feMorphology radius="3" operator="dilate" in="SourceAlpha" result="effect1_dropShadow"/>
<feOffset dx="2" dy="1"/>
<feGaussianBlur stdDeviation="1"/>
<feColorMatrix type="matrix" values="0 0 0 0 0.9625 0 0 0 0 0.9625 0 0 0 0 0.9625 0 0 0 1 0"/>
<feBlend mode="normal" in2="BackgroundImageFix" result="effect1_dropShadow"/>
<feBlend mode="normal" in="SourceGraphic" in2="effect1_dropShadow" result="shape"/>
</filter>
</defs>
</svg>
